<?xml version="1.0" standalone="no"?>
<!DOCTYPE svg PUBLIC "-//W3C//DTD SVG 1.1//EN" "http://www.w3.org/Graphics/SVG/1.1/DTD/svg11.dtd" >
<svg xmlns="http://www.w3.org/2000/svg">
<metadata>Generated by IcoMoon</metadata>
<defs>
<font id="icomoon" horiz-adv-x="1024">
<font-face units-per-em="1024" ascent="960" descent="-64" />
<missing-glyph horiz-adv-x="1024" />
<glyph unicode="&#x20;" horiz-adv-x="512" d="" />
<glyph unicode="&#xe900;" glyph-name="add-to-cart" horiz-adv-x="1119" d="M981.224-28.057c-4.774-21.201-23.681-36.317-45.49-36.317h-752.603c-21.809 0-40.717 15.117-45.49 36.317l-136.845 605.601c-3.136 13.806 0.187 28.268 9.033 39.313 8.892 11.092 22.277 17.503 36.458 17.503h198.95l82.744 292.177c6.973 24.804 32.714 39.125 57.565 32.152 24.804-6.973 39.172-32.761 32.152-57.518l-75.536-266.811h434.545l-75.536 266.811c-7.020 24.758 7.348 50.545 32.152 57.518 24.57 6.973 50.638-7.348 57.565-32.152l82.744-292.177h198.95c14.181 0 27.566-6.412 36.458-17.503 8.845-11.045 12.168-25.506 9.079-39.313l-136.892-605.601zM92.197 543.005l128.234-514.2h678.002l129.778 514.2h-936.015z" />
<glyph unicode="&#xe901;" glyph-name="calendar" d="M938.667-64h-853.333c-47.019 0-85.333 38.272-85.333 85.333v768c0 47.061 38.315 85.333 85.333 85.333h213.333v42.667c0 23.552 19.072 42.667 42.667 42.667s42.667-19.115 42.667-42.667v-42.667h256v42.667c0 23.552 19.072 42.667 42.667 42.667s42.667-19.115 42.667-42.667v-42.667h213.333c47.061 0 85.333-38.272 85.333-85.333v-768c0-47.061-38.272-85.333-85.333-85.333zM725.333 789.333v-42.667c0-23.552-19.072-42.667-42.667-42.667s-42.667 19.115-42.667 42.667v42.667h-256v-42.667c0-23.552-19.072-42.667-42.667-42.667s-42.667 19.115-42.667 42.667v42.667h-213.333v-768h853.205l0.128 768h-213.333zM810.667 192h-85.333c-23.595 0-42.667 19.115-42.667 42.667v85.333c0 23.552 19.072 42.667 42.667 42.667h85.333c23.595 0 42.667-19.115 42.667-42.667v-85.333c0-23.552-19.072-42.667-42.667-42.667zM810.667 448h-85.333c-23.595 0-42.667 19.115-42.667 42.667v85.333c0 23.552 19.072 42.667 42.667 42.667h85.333c23.595 0 42.667-19.115 42.667-42.667v-85.333c0-23.552-19.072-42.667-42.667-42.667zM554.667 192h-85.333c-23.595 0-42.667 19.115-42.667 42.667v85.333c0 23.552 19.072 42.667 42.667 42.667h85.333c23.595 0 42.667-19.115 42.667-42.667v-85.333c0-23.552-19.072-42.667-42.667-42.667zM554.667 448h-85.333c-23.595 0-42.667 19.115-42.667 42.667v85.333c0 23.552 19.072 42.667 42.667 42.667h85.333c23.595 0 42.667-19.115 42.667-42.667v-85.333c0-23.552-19.072-42.667-42.667-42.667zM298.667 192h-85.333c-23.595 0-42.667 19.115-42.667 42.667v85.333c0 23.552 19.072 42.667 42.667 42.667h85.333c23.595 0 42.667-19.115 42.667-42.667v-85.333c0-23.552-19.072-42.667-42.667-42.667zM298.667 448h-85.333c-23.595 0-42.667 19.115-42.667 42.667v85.333c0 23.552 19.072 42.667 42.667 42.667h85.333c23.595 0 42.667-19.115 42.667-42.667v-85.333c0-23.552-19.072-42.667-42.667-42.667z" />
<glyph unicode="&#xe902;" glyph-name="multimedia" d="M0 704.001l512.002-512.002 511.998 512.002z" />
<glyph unicode="&#xe903;" glyph-name="edit-1" horiz-adv-x="1023" d="M1023.295 826.691c-2.050-28.347-16.079-56.277-40.518-80.748-0.032 0-0.064-0.032-0.064-0.032l-448.036-448.26c-3.523-3.523-7.783-6.182-12.492-7.751l-192.052-64.060c-3.331-1.089-6.726-1.634-10.121-1.634-8.36 0-16.527 3.267-22.613 9.385-8.584 8.584-11.595 21.236-7.751 32.767l63.996 192.148c1.602 4.708 4.228 8.968 7.751 12.492l448.036 448.292c0.032 0 0.032 0.032 0.032 0.032 24.567 24.599 52.721 38.5 81.484 40.23 22.709 1.409 57.59-4.452 93.303-40.23 35.297-35.265 40.71-69.857 39.045-92.631zM938.992 874.063c-15.15 15.15-29.98 22.229-44.201 21.556-16.271-0.993-30.749-12.268-40.038-21.556 0-0.032-0.032-0.032-0.064-0.064l-442.687-442.943-41.383-124.212 124.148 41.415 442.751 442.975c9.353 9.385 20.787 23.926 21.941 40.102 0.993 13.773-5.894 28.122-20.467 42.728zM576.060 800.619h-512.096v-800.591h800.142v512.384c0 17.681 14.349 31.998 32.030 31.998 17.649 0 31.998-14.317 31.998-31.998v-544.382c0-17.713-14.349-32.062-31.998-32.062h-864.17c-17.681 0-32.030 14.349-32.030 32.062v864.619c0 17.681 14.349 32.030 32.030 32.030h544.094c17.681 0 31.998-14.349 31.998-32.030s-14.317-32.030-31.998-32.030z" />
<glyph unicode="&#xe904;" glyph-name="eye" d="M1017.492 467.917c-9.148 12.514-227.114 306.413-505.497 306.413s-496.359-293.899-505.497-306.401c-8.664-11.872-8.664-27.974 0-39.846 9.138-12.514 227.114-306.413 505.497-306.413s496.349 293.901 505.497 306.403c8.676 11.87 8.676 27.984 0 39.844zM511.995 189.186c-205.058 0-382.661 195.066-435.235 258.837 52.506 63.826 229.736 258.791 435.235 258.791 205.048 0 382.639-195.032 435.235-258.837-52.506-63.824-229.736-258.791-435.235-258.791zM511.995 650.549c-111.684 0-202.55-90.866-202.55-202.55s90.866-202.55 202.55-202.55 202.55 90.866 202.55 202.55-90.866 202.55-202.55 202.55zM511.995 312.967c-74.46 0-135.032 60.574-135.032 135.032s60.574 135.032 135.032 135.032 135.032-60.574 135.032-135.032-60.572-135.032-135.032-135.032z" />
<glyph unicode="&#xe905;" glyph-name="instagram" d="M741.403 960h-458.823c-155.814 0-282.579-126.771-282.579-282.585v-458.823c0-155.82 126.765-282.585 282.579-282.585h458.823c155.826 0 282.591 126.771 282.591 282.585v458.823c0.006 155.814-126.765 282.585-282.591 282.585zM933.146 218.591c0-105.723-86.014-191.732-191.738-191.732h-458.829c-105.717-0.006-191.726 86.008-191.726 191.732v458.823c0 105.717 86.008 191.732 191.726 191.732h458.823c105.723 0 191.738-86.014 191.738-191.732v-458.823zM511.997 711.848c-145.493 0-263.857-118.364-263.857-263.857 0-145.487 118.364-263.845 263.857-263.845s263.857 118.358 263.857 263.845c0 145.493-118.364 263.857-263.857 263.857zM511.997 275.005c-95.39 0-173.004 77.601-173.004 172.992 0 95.396 77.607 173.004 173.004 173.004s173.004-77.607 173.004-173.004c0-95.39-77.613-172.992-173.004-172.992zM786.92 788.886c-17.504 0-34.7-7.087-47.062-19.503-12.423-12.356-19.564-29.558-19.564-47.123 0-17.511 7.147-34.706 19.564-47.123 12.356-12.356 29.558-19.503 47.062-19.503 17.565 0 34.706 7.147 47.123 19.503 12.417 12.417 19.503 29.618 19.503 47.123 0 17.565-7.087 34.767-19.503 47.123-12.356 12.417-29.558 19.503-47.123 19.503z" />
<glyph unicode="&#xe906;" glyph-name="gift" horiz-adv-x="1021" d="M1021.909 640.043l-0.256-200.32c0-23.552-16.768-34.389-40.32-34.389h-2.261v-376.832c0-2.56 0.171-5.504 0.341-8.576 0.981-20.139 2.389-47.659-16.469-67.541-10.069-10.581-23.765-16.384-38.613-16.384h-787.413c-41.472 0-94.464 51.883-94.464 92.501v376.832c-23.467 0.085-42.581 10.923-42.581 34.389v197.717c0 9.173 3.413 55.168 70.443 55.168 4.949 0 9.984-0.171 14.677-0.384l0.341 11.776h121.557c-21.376 27.691-38.101 62.763-38.101 105.899 0 103.168 76.373 150.101 147.285 150.101 93.269 0 152.96-59.435 214.699-187.691 62.592 128.256 124.629 187.691 217.984 187.691 70.912 0 147.285-46.933 147.285-150.101 0-43.136-17.195-78.208-39.168-105.899h124.459c2.048 0-9.728-11.819-8.789-11.776 14.037 1.536 30.891-4.309 39.936-15.019 8.107-9.557 11.477-24.789 9.429-37.163zM553.387 21.333h340.608c-0.085 2.517-0.171 4.949-0.171 7.168l2.176 376.832h-342.613v-384zM141.952 21.333h326.187v384h-340.139l-0.299-370.688c3.243-4.437 9.728-10.496 14.251-13.312zM85.333 618.667c-2.432 0 2.645-11.904-0.213-11.861l0.213-116.139h382.805v128h-382.805zM316.075 874.667c-23.168 0-62.037-8.405-62.037-64.768 0-60.757 78.379-102.187 79.403-102.613 1.92-0.768 3.285-2.261 5.035-3.285h130.133c-76.971 170.112-123.605 170.667-152.533 170.667zM727.851 707.285c1.024 0.427 82.944 41.856 82.944 102.613 0 56.363-38.869 64.768-62.037 64.768-28.928 0-78.549-0.555-155.947-170.667h129.963c1.792 1.024 3.115 2.517 5.077 3.285zM938.667 618.667h-385.28v-128h385.28v128z" />
<glyph unicode="&#xe907;" glyph-name="lock" horiz-adv-x="853" d="M725.333-64h-597.333c-70.571 0-128 57.387-128 128v426.667c0 70.571 57.429 128 128 128h42.667v85.333c0 141.141 114.816 256 256 256s256-114.859 256-256v-85.333h42.667c70.571 0 128-57.429 128-128v-426.667c0-70.613-57.429-128-128-128zM426.667 874.667c-94.123 0-170.667-76.544-170.667-170.667v-85.333h341.333v85.333c0 94.123-76.544 170.667-170.667 170.667zM768 490.667c0 23.552-19.157 42.667-42.667 42.667h-597.333c-23.509 0-42.667-19.115-42.667-42.667v-426.667c0-23.509 19.157-42.667 42.667-42.667h597.333c23.509 0 42.667 19.157 42.667 42.667v426.667zM469.333 289.195v-97.195c0-23.552-19.115-42.667-42.667-42.667s-42.667 19.115-42.667 42.667v97.195c-25.387 14.805-42.667 42.027-42.667 73.472 0 47.061 38.272 85.333 85.333 85.333s85.333-38.272 85.333-85.333c0-31.445-17.28-58.667-42.667-73.472z" />
<glyph unicode="&#xe908;" glyph-name="pro-arrow" horiz-adv-x="372" d="M87.156-52.201l-47.93 22.563 267.974 504.623 47.93-22.563zM15.837 918.004l43.439 30.359 301.382-485.236-43.439-30.383z" />
<glyph unicode="&#xe909;" glyph-name="brand" horiz-adv-x="928" d="M426.611-63.968c-17.119 0-33.183 6.624-45.247 18.687l-330.646 330.742c-24.927 24.959-24.927 65.566 0 90.493l437.714 424.403c18.175 18.207 50.686 31.647 76.894 31.647h298.647c35.295 0 63.998-28.703 63.998-63.998v-298.615c0-26.207-13.472-58.718-31.999-77.246l-423.763-437.074c-12.416-12.416-28.479-19.039-45.599-19.039zM565.326 768.006c-9.12 0-25.567-6.816-31.999-13.248l-437.714-424.403 330.998-330.326c0.064 0 0.096 0 0.096 0l423.667 437.010c6.784 6.784 13.6 23.231 13.6 32.351v298.615h-298.647zM31.999 448.016c-8.192 0-16.383 3.136-22.623 9.376-12.512 12.48-12.512 32.767 0 45.247l425.363 425.363c18.527 18.559 51.038 31.999 77.246 31.999h319.99c17.695 0 31.999-14.336 31.999-31.999s-14.304-31.999-31.999-31.999h-319.99c-9.12 0-25.567-6.816-31.999-13.248l-425.363-425.363c-6.24-6.24-14.432-9.376-22.623-9.376zM735.977 576.012c-35.295 0-63.998 28.703-63.998 63.998s28.703 63.998 63.998 63.998c35.295 0 63.998-28.703 63.998-63.998s-28.703-63.998-63.998-63.998z" />
<glyph unicode="&#xe90a;" glyph-name="Description" horiz-adv-x="896" d="M533.324 661.33h-255.977c-11.766 0-21.324 9.557-21.324 21.324 0 11.812 9.557 21.324 21.324 21.324h256.023c11.766 0 21.324-9.557 21.324-21.324s-9.557-21.324-21.369-21.324zM746.654 490.648h-469.307c-11.766 0-21.324 9.557-21.324 21.324s9.512 21.369 21.324 21.369h469.352c11.766 0 21.324-9.557 21.324-21.324s-9.557-21.369-21.369-21.369zM746.654 362.659h-469.307c-11.766 0-21.324 9.557-21.324 21.324 0 11.812 9.557 21.324 21.324 21.324h469.352c11.766 0 21.324-9.557 21.324-21.324s-9.557-21.324-21.369-21.324zM149.313-0.028c-11.766 0-21.324 9.557-21.324 21.324v917.38c0 11.766 9.557 21.324 21.324 21.324h725.33c11.766 0 21.324-9.557 21.324-21.324s-9.557-21.324-21.324-21.324h-703.961v-896.011c0-11.812-9.557-21.369-21.369-21.369zM746.654 234.67h-469.307c-11.766 0-21.324 9.557-21.324 21.324 0 11.812 9.557 21.324 21.324 21.324h469.352c11.766 0 21.324-9.557 21.324-21.324 0-11.812-9.557-21.324-21.369-21.324zM874.687-0.028c-11.766 0-21.324 9.557-21.324 21.324v917.38c0 11.766 9.512 21.324 21.324 21.324 11.766 0 21.324-9.557 21.324-21.324v-917.335c0-11.812-9.557-21.369-21.324-21.369zM807.83-64h-719.649c-11.766 0-21.324 9.557-21.324 21.324s9.557 21.324 21.324 21.324h719.649c11.766 0 21.324-9.557 21.324-21.324s-9.557-21.324-21.324-21.324zM149.313 661.33h-127.989c-11.766 0-21.324 9.557-21.324 21.324 0 11.812 9.557 21.324 21.324 21.324h127.989c11.766 0 21.324-9.557 21.324-21.324 0.045-11.766-9.512-21.324-21.324-21.324zM21.324 1.414c-11.766 0-21.324 9.512-21.324 21.324v654.235c0 11.812 9.557 21.324 21.324 21.324s21.324-9.557 21.324-21.324v-654.235c0-11.812-9.512-21.324-21.324-21.324zM810.67-64c-11.766 0-21.324 9.557-21.324 21.324s9.557 21.324 21.324 21.324c23.533 0 42.648 19.16 42.648 42.648 0 11.812 9.557 21.324 21.324 21.324s21.324-9.557 21.324-21.324c0.045-47.021-38.23-85.296-85.296-85.296zM85.341-64c-11.766 0-21.324 9.557-21.324 21.324s9.557 21.324 21.324 21.324c23.533 0 42.648 19.16 42.648 42.648 0 11.812 9.557 21.324 21.324 21.324s21.324-9.557 21.324-21.324c0.045-47.021-38.23-85.296-85.296-85.296zM85.341-64c-47.066 0-85.341 38.275-85.341 85.341 0 11.812 9.557 21.324 21.324 21.324s21.324-9.557 21.324-21.324c0-23.533 19.115-42.648 42.648-42.648 11.766 0 21.324-9.557 21.324-21.324s-9.512-21.369-21.279-21.369z" />
<glyph unicode="&#xe90b;" glyph-name="Reviews" horiz-adv-x="1117" d="M954.234 331.681h-465.489c-12.844 0-23.255 10.412-23.255 23.255s10.412 23.255 23.255 23.255h465.489c12.844 0 23.255-10.412 23.255-23.255s-10.412-23.255-23.255-23.255zM954.234 192.021h-791.319c-12.844 0-23.255 10.412-23.255 23.255s10.412 23.255 23.255 23.255h791.319c12.844 0 23.255-10.412 23.255-23.255s-10.412-23.255-23.255-23.255zM1058.179-64h-999.209c-32.515 0-58.97 26.584-58.97 59.269v719.377c0 32.643 26.456 59.226 58.97 59.226h173.796c12.844 0 23.255-10.412 23.255-23.298s-10.412-23.255-23.298-23.255h-173.753c-6.742 0-12.417-5.803-12.417-12.673v-719.377c0-6.87 5.675-12.716 12.417-12.716h999.209c6.742 0 12.417 5.803 12.417 12.716v719.377c0 6.87-5.675 12.673-12.417 12.673h-266.86c-12.844 0-23.255 10.412-23.255 23.255s10.412 23.255 23.255 23.255h266.86c32.515 0 58.97-26.584 58.97-59.226v-719.377c0-32.643-26.456-59.226-58.97-59.226zM218.301 508.976c-5.974 0-11.905 2.262-16.471 6.827-9.089 9.089-9.089 23.81 0 32.899l381.216 381.258c9.089 9.089 23.81 9.089 32.899 0s9.089-23.81 0-32.899l-381.216-381.258c-4.523-4.523-10.497-6.827-16.428-6.827zM316.997 410.28c-5.974 0-11.905 2.262-16.471 6.827-9.089 9.089-9.089 23.81 0 32.899l381.258 381.258c9.089 9.089 23.81 9.089 32.899 0s9.089-23.81 0-32.899l-381.258-381.258c-4.523-4.566-10.497-6.827-16.428-6.827zM701.029 794.312c-5.974 0-11.948 2.262-16.471 6.827-9.089 9.089-9.089 23.81 0.043 32.899 8.79 8.79 13.612 20.439 13.612 32.856 0 12.46-4.822 24.151-13.654 32.941-18.135 18.135-47.705 18.135-65.84 0-9.089-9.089-23.81-9.089-32.899 0s-9.089 23.81 0 32.899c36.27 36.312 95.368 36.312 131.638 0 17.58-17.58 27.266-40.963 27.266-65.84s-9.686-48.26-27.309-65.797c-4.48-4.523-10.412-6.785-16.385-6.785zM162.915 354.936c-6.059 0-12.033 2.39-16.471 6.827-6.358 6.358-8.491 15.831-5.462 24.322l55.301 154.082c4.395 12.118 17.751 18.391 29.826 14.039s18.391-17.665 14.039-29.784l-38.659-107.614 107.529 38.659c11.99 4.395 25.389-1.92 29.784-14.039 4.352-12.118-1.92-25.431-14.039-29.784l-153.997-55.386c-2.56-0.896-5.206-1.323-7.851-1.323z" />
<glyph unicode="&#xe90c;" glyph-name="Specifications" horiz-adv-x="832" d="M469.32-64c-2.007 0-4.014 0.287-5.98 0.86l-447.98 130.867c-9.093 2.662-15.36 10.977-15.36 20.48v719.626c0 9.462 6.267 17.818 15.36 20.48l447.98 130.867c6.431 1.843 13.394 0.655 18.76-3.4 5.366-4.014 8.561-10.363 8.561-17.080v-981.32c0-6.717-3.154-13.025-8.561-17.080-3.686-2.826-8.192-4.301-12.78-4.301zM42.68 104.182l405.34-118.415v924.467l-405.34-118.415v-687.636zM810.68 64h-327.107c-11.796 0-21.34 9.544-21.34 21.34s9.544 21.34 21.34 21.34h305.807v682.68h-305.807c-11.796 0-21.34 9.544-21.34 21.34s9.544 21.34 21.34 21.34h327.107c11.796 0 21.34-9.544 21.34-21.34v-725.32c-0.041-11.837-9.585-21.381-21.34-21.381zM682.68 618.68h-198.41c-11.796 0-21.34 9.544-21.34 21.34s9.544 21.34 21.34 21.34h198.41c11.796 0 21.34-9.544 21.34-21.34-0.041-11.796-9.585-21.34-21.34-21.34zM682.68 490.68h-198.41c-11.796 0-21.34 9.544-21.34 21.34s9.544 21.34 21.34 21.34h198.41c11.796 0 21.34-9.544 21.34-21.34s-9.585-21.34-21.34-21.34zM682.68 362.68h-198.41c-11.796 0-21.34 9.544-21.34 21.34s9.544 21.34 21.34 21.34h198.41c11.796 0 21.34-9.544 21.34-21.34-0.041-11.796-9.585-21.34-21.34-21.34zM682.68 234.68h-198.41c-11.796 0-21.34 9.544-21.34 21.34s9.544 21.34 21.34 21.34h198.41c11.796 0 21.34-9.544 21.34-21.34s-9.585-21.34-21.34-21.34z" />
<glyph unicode="&#xe90d;" glyph-name="video" d="M960-64h-896c-35.271 0-64 28.729-64 64v896c0 35.271 28.729 64 64 64h896c35.271 0 64-28.729 64-64v-896c0-35.271-28.729-64-64-64zM64 917.333c-11.776 0-21.333-9.557-21.333-21.333v-896c0-11.776 9.557-21.333 21.333-21.333h896c11.776 0 21.333 9.557 21.333 21.333v896c0 11.776-9.557 21.333-21.333 21.333h-896zM704 725.333h-42.667c-11.776 0-21.333 9.557-21.333 21.333v85.333c0 11.776 9.557 21.333 21.333 21.333h42.667c11.776 0 21.333-9.557 21.333-21.333v-85.333c0-11.776-9.557-21.333-21.333-21.333zM874.667 725.333h-42.667c-11.776 0-21.333 9.557-21.333 21.333v85.333c0 11.776 9.557 21.333 21.333 21.333h42.667c11.776 0 21.333-9.557 21.333-21.333v-85.333c0-11.776-9.557-21.333-21.333-21.333zM533.333 725.333h-42.667c-11.776 0-21.333 9.557-21.333 21.333v85.333c0 11.776 9.557 21.333 21.333 21.333h42.667c11.776 0 21.333-9.557 21.333-21.333v-85.333c0-11.776-9.557-21.333-21.333-21.333zM362.667 725.333h-42.667c-11.776 0-21.333 9.557-21.333 21.333v85.333c0 11.776 9.557 21.333 21.333 21.333h42.667c11.776 0 21.333-9.557 21.333-21.333v-85.333c0-11.776-9.557-21.333-21.333-21.333zM192 725.333h-42.667c-11.776 0-21.333 9.557-21.333 21.333v85.333c0 11.776 9.557 21.333 21.333 21.333h42.667c11.776 0 21.333-9.557 21.333-21.333v-85.333c0-11.776-9.557-21.333-21.333-21.333zM704 42.667h-42.667c-11.776 0-21.333 9.557-21.333 21.333v85.333c0 11.776 9.557 21.333 21.333 21.333h42.667c11.776 0 21.333-9.557 21.333-21.333v-85.333c0-11.776-9.557-21.333-21.333-21.333zM874.667 42.667h-42.667c-11.776 0-21.333 9.557-21.333 21.333v85.333c0 11.776 9.557 21.333 21.333 21.333h42.667c11.776 0 21.333-9.557 21.333-21.333v-85.333c0-11.776-9.557-21.333-21.333-21.333zM533.333 42.667h-42.667c-11.776 0-21.333 9.557-21.333 21.333v85.333c0 11.776 9.557 21.333 21.333 21.333h42.667c11.776 0 21.333-9.557 21.333-21.333v-85.333c0-11.776-9.557-21.333-21.333-21.333zM362.667 42.667h-42.667c-11.776 0-21.333 9.557-21.333 21.333v85.333c0 11.776 9.557 21.333 21.333 21.333h42.667c11.776 0 21.333-9.557 21.333-21.333v-85.333c0-11.776-9.557-21.333-21.333-21.333zM192 42.667h-42.667c-11.776 0-21.333 9.557-21.333 21.333v85.333c0 11.776 9.557 21.333 21.333 21.333h42.667c11.776 0 21.333-9.557 21.333-21.333v-85.333c0-11.776-9.557-21.333-21.333-21.333zM405.333 298.667c-3.868 0-7.794 1.081-11.207 3.186-6.315 3.925-10.126 10.752-10.126 18.148v256c0 7.396 3.812 14.279 10.126 18.148 6.315 3.925 14.165 4.21 20.764 0.91l256-128c7.225-3.584 11.776-10.98 11.776-19.058s-4.551-15.474-11.776-19.058l-256-128c-3.015-1.536-6.315-2.276-9.557-2.276zM426.667 541.468v-186.937l186.994 93.468-186.994 93.468z" />
<glyph unicode="&#xe90e;" glyph-name="search" d="M751.466 299.033c50.39 68.812 80.53 153.334 80.53 244.964 0 229.374-186.625 415.999-415.999 415.999s-415.997-186.625-415.997-415.999 186.625-415.999 415.999-415.999c91.629 0 176.16 30.145 244.972 80.534l272.53-272.53 90.499 90.499c0 0.002-272.534 272.532-272.534 272.532zM415.999 255.998c-158.812 0-287.999 129.186-287.999 287.999s129.186 287.999 287.999 287.999 287.999-129.186 287.999-287.999-129.188-287.999-287.999-287.999z" />
<glyph unicode="&#xe90f;" glyph-name="zoom-in" d="M1012.282 4.298l-288.904 288.904c131.628 160.15 122.672 397.888-26.902 547.46-159.118 159.118-418.020 159.118-577.138 0s-159.118-418.020 0-577.138c149.532-149.532 387.24-158.586 547.46-26.902l288.904-288.904c15.624-15.624 40.954-15.624 56.578 0 15.626 15.626 15.626 40.956 0.002 56.58zM639.898 320.104c-127.92-127.92-336.060-127.918-463.98 0-127.92 127.92-127.92 336.060 0 463.98 127.916 127.914 336.056 127.924 463.98 0 127.92-127.92 127.92-336.060 0-463.98zM603.794 592.102h-155.88v155.88c0 22.096-17.912 40.008-40.008 40.008s-40.008-17.912-40.008-40.008v-155.88h-155.88c-22.096 0-40.008-17.912-40.008-40.008s17.912-40.008 40.008-40.008h155.88v-155.88c0-22.096 17.912-40.008 40.008-40.008s40.008 17.912 40.008 40.008v155.88h155.88c22.096 0 40.008 17.912 40.008 40.008s-17.912 40.008-40.008 40.008z" />
<glyph unicode="&#xe913;" glyph-name="profile" d="M510.319 388.308c151.331 0 274.075 122.746 274.075 274.075s-122.746 273.236-274.075 273.236-274.075-122.746-274.075-273.236 122.744-274.075 274.075-274.075zM510.319 864.157c110.975 0 201.774-90.797 201.774-201.774s-90.799-201.772-201.774-201.772-201.774 90.797-201.774 201.774 90.797 201.772 201.774 201.772zM36.151-39.619h951.699c20.177 0 36.151 15.973 36.151 36.151 0 189.163-153.852 343.856-343.856 343.856h-336.288c-189.163 0-343.856-153.852-343.856-343.856 0-20.177 15.973-36.151 36.151-36.151zM343.856 268.086h336.288c137.878 0 251.376-102.569 269.032-235.402h-874.352c17.655 131.992 131.154 235.402 269.032 235.402z" />
<glyph unicode="&#xe914;" glyph-name="random" d="M832.387 549.468c9.959-9.88 26.039-9.811 35.919 0.149l148.328 149.598c9.85 9.93 9.82 25.95-0.069 35.83l-148.338 148.338c-9.92 9.92-25.999 9.92-35.909 0-9.92-9.91-9.92-25.989 0-35.909l104.98-104.989h-152.534c-71.63-0.179-139.083-33.776-182.392-90.834l-123.132-163.089-123.132 163.089c-43.309 57.058-110.763 90.656-182.402 90.834h-148.309c-14.026 0-25.394-11.368-25.394-25.394s11.368-25.394 25.394-25.394h148.299c55.719-0.139 108.184-26.267 141.871-70.648l131.852-174.625-131.842-174.625c-33.687-44.38-86.152-70.509-141.871-70.648h-148.309c-14.026 0-25.394-11.368-25.394-25.394s11.368-25.394 25.394-25.394h148.299c71.64 0.179 139.093 33.776 182.402 90.834l123.142 163.079 123.132-163.089c43.309-57.058 110.763-90.656 182.402-90.834h152.534l-104.999-104.98c-6.458-6.408-8.997-15.782-6.656-24.571s9.205-15.663 18.004-18.004c8.789-2.341 18.163 0.198 24.571 6.666l148.328 148.338c9.89 9.89 9.92 25.9 0.079 35.83l-148.338 149.598c-6.358 6.567-15.762 9.215-24.611 6.914-8.858-2.291-15.792-9.166-18.163-18.004-2.371-8.828 0.198-18.252 6.716-24.67l105.426-106.319h-152.901c-55.719 0.139-108.184 26.267-141.871 70.648l-131.842 174.625 131.842 174.625c33.687 44.38 86.152 70.509 141.871 70.648h152.891l-105.416-106.319c-9.88-9.959-9.811-26.039 0.149-35.909z" />
<glyph unicode="&#xe916;" glyph-name="shopping-cart" d="M1002.643 764.319c-18.418 22.441-46.364 34.932-75.368 34.932h-629.404c-17.995 0-35.143-5.081-49.963-14.184l-32.179 112.416c-5.293 18.418-22.017 31.121-41.071 31.121h-142.267c-17.783 0-32.391-14.396-32.391-32.391v-3.387c0-17.783 14.396-32.391 32.391-32.391h122.366l62.453-220.81 85.953-304.646c-48.904-12.279-85.106-56.526-85.106-109.029 0-59.49 46.364-108.394 105.007-112.205-4.869-13.973-7.198-29.427-5.928-45.305 4.234-53.774 48.057-97.173 101.831-100.772 64.147-4.446 117.709 46.575 117.709 109.664 0 12.702-2.117 24.77-6.139 36.202h128.718c-5.293-15.031-7.41-31.756-5.504-48.904 5.928-52.080 48.904-93.151 101.408-96.962 64.147-4.446 117.921 46.364 117.921 109.664 0 61.183-50.81 110.087-111.781 110.087h-429.976c-20.959 0-38.742 16.301-39.589 37.049-0.847 22.017 16.725 40.013 38.531 40.013h512.965c43.612 0 81.719 29.851 92.304 72.192l85.53 344.235c7.41 29.639 0.635 59.913-18.418 83.412zM763.203 113.745c19.9 0 36.202-16.301 36.202-36.202s-16.301-36.202-36.202-36.202-36.202 16.301-36.202 36.202 16.090 36.202 36.202 36.202zM426.801 113.745c19.9 0 36.202-16.301 36.202-36.202s-16.301-36.202-36.202-36.202c-19.9 0-36.202 16.301-36.202 36.202s16.090 36.202 36.202 36.202zM293.849 640.048l-16.513 58.219c-2.54 8.892 1.059 15.455 3.599 18.63 2.329 3.176 7.833 8.468 16.937 8.468h69.016l18.842-85.53h-91.881v0.212zM314.596 566.374h87.223l17.36-79.178h-82.354l-22.229 79.178zM394.833 338.577c-9.527 0-17.995 6.351-20.536 15.666l-16.725 59.278h77.696l16.513-74.732h-56.949v-0.212zM579.23 338.577h-52.080l-16.513 74.732h68.381v-74.732h0.212zM579.23 487.195h-84.683l-17.36 79.178h102.043v-79.178zM579.23 640.048h-118.132l-18.842 85.53h136.974v-85.53zM711.335 338.577h-58.219v74.732h73.886l-15.666-74.732zM742.667 487.195h-89.552v79.178h106.277l-16.725-79.178zM653.115 640.048v85.53h139.726l-17.995-85.53h-121.731zM864.187 354.667c-2.329-9.527-10.797-16.301-20.747-16.301h-56.737l15.878 74.732h76.214l-14.608-58.431zM897.001 487.195h-78.967l16.725 79.178h81.931l-19.689-79.178zM949.505 699.114l-14.608-58.854h-84.683l17.995 85.53h60.548c9.103 0 14.396-5.081 16.725-8.257 2.54-3.176 6.351-9.739 4.022-18.418z" />
<glyph unicode="&#xe917;" glyph-name="shutdown" d="M511.727-64c-233.641 0-423.727 190.070-423.727 423.727 0 190.305 128.016 358.344 311.328 408.656 18.773 5.063 38.219-5.898 43.398-24.727 5.148-18.797-5.898-38.242-24.711-43.383-152.719-41.93-259.398-181.961-259.398-340.547 0-194.688 158.398-353.109 353.109-353.109 194.703 0 353.102 158.422 353.102 353.109 0 154.859-103.516 293.992-251.727 338.344-18.688 5.586-29.289 25.273-23.703 43.961 5.602 18.656 25.328 29.242 43.945 23.688 177.875-53.234 302.102-220.164 302.102-405.992 0-233.656-190.078-423.727-423.719-423.727zM511.727 500.969c-19.5 0-35.313 15.789-35.313 35.305v388.414c0 19.523 15.813 35.313 35.313 35.313s35.305-15.789 35.305-35.313v-388.414c0-19.516-15.805-35.305-35.305-35.305z" />
<glyph unicode="&#xe919;" glyph-name="wishlist" horiz-adv-x="1120" d="M560-64c-38.4 0-73.6 16-99.2 44.8l-374.4 460.8c-54.4 57.6-86.4 134.4-86.4 214.4s32 156.8 89.6 214.4c54.4 57.6 131.2 89.6 214.4 89.6 80 0 156.8-32 211.2-89.6l41.6-35.2 44.8 35.2c57.6 57.6 131.2 89.6 214.4 89.6 80 0 156.8-32 214.4-89.6s89.6-134.4 89.6-214.4c0-80-32-156.8-86.4-214.4l-377.6-460.8c-25.6-28.8-60.8-44.8-96-44.8zM160 499.2l374.4-457.6c12.8-16 38.4-16 51.2 0l374.4 457.6c0 3.2 3.2 3.2 3.2 6.4 38.4 38.4 60.8 92.8 60.8 150.4s-22.4 108.8-60.8 150.4c-38.4 41.6-92.8 60.8-147.2 60.8s-108.8-22.4-147.2-60.8c0 0 0 0-3.2-3.2 0 0 0 0-3.2-3.2l-70.4-60.8c-16-19.2-44.8-19.2-64-3.2l-73.6 64c0 0 0 0-3.2 3.2s0 0-3.2 3.2c-38.4 38.4-92.8 60.8-147.2 60.8-57.6 0-108.8-22.4-147.2-60.8-38.4-41.6-60.8-96-60.8-150.4 0-57.6 22.4-108.8 60.8-150.4 3.2-3.2 3.2-3.2 6.4-6.4z" />
<glyph unicode="&#xe91a;" glyph-name="newsletter" d="M1024 960l-1024-576.001 327.251-121.203 504.751 473.203-383.93-517.954 0.312-0.116-0.382 0.116v-282.047l183.52 214.105 232.48-86.106z" />
</font>
</defs>
</svg>
