<svg xmlns="http://www.w3.org/2000/svg"><symbol viewBox="0 0 24 24" id="icon-add"><path d="M19 13h-6v6h-2v-6H5v-2h6V5h2v6h6v2z"/></symbol><symbol viewBox="0 0 256 512" id="icon-angle-right"><path d="M224.3 273l-136 136c-9.4 9.4-24.6 9.4-33.9 0l-22.6-22.6c-9.4-9.4-9.4-24.6 0-33.9l96.4-96.4-96.4-96.4c-9.4-9.4-9.4-24.6 0-33.9L54.3 103c9.4-9.4 24.6-9.4 33.9 0l136 136c9.5 9.4 9.5 24.6.1 34z"/></symbol><symbol viewBox="0 0 36 36" id="icon-arrow-down"> <path d="M16.5 6v18.26l-8.38-8.38-2.12 2.12 12 12 12-12-2.12-2.12-8.38 8.38v-18.26h-3z"/> </symbol><symbol viewBox="0 0 12 8" id="icon-chevron-down"><path d="M6 6.174l5.313-4.96.23-.214.457.427-.23.214-5.51 5.146L6.03 7 6 6.972 5.97 7l-.23-.214L.23 1.64 0 1.428.458 1l.23.214L6 6.174z" stroke-linecap="square" fill-rule="evenodd"/></symbol><symbol viewBox="0 0 24 24" id="icon-chevron-left"><path d="M15.41 7.41L14 6l-6 6 6 6 1.41-1.41L10.83 12z"/></symbol><symbol viewBox="0 0 24 24" id="icon-chevron-right"><path d="M10 6L8.59 7.41 13.17 12l-4.58 4.59L10 18l6-6z"/></symbol><symbol viewBox="0 0 24 24" id="icon-close"><path d="M19 6.41L17.59 5 12 10.59 6.41 5 5 6.41 10.59 12 5 17.59 6.41 19 12 13.41 17.59 19 19 17.59 13.41 12z"/></symbol><symbol viewBox="0 0 213.333 213.333" id="icon-down-arrow"> <g> <g> <polygon points="0,53.333 106.667,160 213.333,53.333 		"/> </g> </g> </symbol><symbol viewBox="0 0 28 28" id="icon-envelope"> <path d="M0 23.5v-12.406q0.688 0.766 1.578 1.359 5.656 3.844 7.766 5.391 0.891 0.656 1.445 1.023t1.477 0.75 1.719 0.383h0.031q0.797 0 1.719-0.383t1.477-0.75 1.445-1.023q2.656-1.922 7.781-5.391 0.891-0.609 1.563-1.359v12.406q0 1.031-0.734 1.766t-1.766 0.734h-23q-1.031 0-1.766-0.734t-0.734-1.766zM0 6.844q0-1.219 0.648-2.031t1.852-0.812h23q1.016 0 1.758 0.734t0.742 1.766q0 1.234-0.766 2.359t-1.906 1.922q-5.875 4.078-7.313 5.078-0.156 0.109-0.664 0.477t-0.844 0.594-0.812 0.508-0.898 0.422-0.781 0.141h-0.031q-0.359 0-0.781-0.141t-0.898-0.422-0.812-0.508-0.844-0.594-0.664-0.477q-1.422-1-4.094-2.852t-3.203-2.227q-0.969-0.656-1.828-1.805t-0.859-2.133z"/> </symbol><symbol viewBox="0 0 96.124 96.123" id="icon-facebook"><g><path d="M72.089,0.02L59.624,0C45.62,0,36.57,9.285,36.57,23.656v10.907H24.037c-1.083,0-1.96,0.878-1.96,1.961v15.803c0,1.083,0.878,1.96,1.96,1.96h12.533v39.876c0,1.083,0.877,1.96,1.96,1.96h16.352c1.083,0,1.96-0.878,1.96-1.96V54.287h14.654c1.083,0,1.96-0.877,1.96-1.96l0.006-15.803c0-0.52-0.207-1.018-0.574-1.386c-0.367-0.368-0.867-0.575-1.387-0.575H56.842v-9.246c0-4.444,1.059-6.7,6.848-6.7l8.397-0.003c1.082,0,1.959-0.878,1.959-1.96V1.98C74.046,0.899,73.17,0.022,72.089,0.02z"/></g></symbol><symbol viewBox="0 0 20 28" id="icon-google"> <path d="M1.734 21.156q0-1.266 0.695-2.344t1.852-1.797q2.047-1.281 6.312-1.563-0.5-0.641-0.742-1.148t-0.242-1.148q0-0.625 0.328-1.328-0.719 0.063-1.062 0.063-2.312 0-3.898-1.508t-1.586-3.82q0-1.281 0.562-2.484t1.547-2.047q1.188-1.031 2.844-1.531t3.406-0.5h6.516l-2.141 1.375h-2.063q1.172 0.984 1.766 2.078t0.594 2.5q0 1.125-0.383 2.023t-0.93 1.453-1.086 1.016-0.922 0.961-0.383 1.031q0 0.562 0.5 1.102t1.203 1.062 1.414 1.148 1.211 1.625 0.5 2.219q0 1.422-0.766 2.703-1.109 1.906-3.273 2.805t-4.664 0.898q-2.063 0-3.852-0.648t-2.695-2.148q-0.562-0.922-0.562-2.047zM4.641 20.438q0 0.875 0.367 1.594t0.953 1.18 1.359 0.781 1.563 0.453 1.586 0.133q0.906 0 1.742-0.203t1.547-0.609 1.141-1.141 0.43-1.703q0-0.391-0.109-0.766t-0.227-0.656-0.422-0.648-0.461-0.547-0.602-0.539-0.57-0.453-0.648-0.469-0.57-0.406q-0.25-0.031-0.766-0.031-0.828 0-1.633 0.109t-1.672 0.391-1.516 0.719-1.070 1.164-0.422 1.648zM6.297 4.906q0 0.719 0.156 1.523t0.492 1.609 0.812 1.445 1.172 1.047 1.508 0.406q0.578 0 1.211-0.258t1.023-0.68q0.828-0.875 0.828-2.484 0-0.922-0.266-1.961t-0.75-2.016-1.313-1.617-1.828-0.641q-0.656 0-1.289 0.305t-1.039 0.82q-0.719 0.922-0.719 2.5z"/> </symbol><symbol viewBox="0 0 24 24" id="icon-grid-view"> <path d="M22.000,24.000 L15.000,24.000 C13.897,24.000 13.000,23.103 13.000,22.000 L13.000,15.000 C13.000,13.897 13.897,13.000 15.000,13.000 L22.000,13.000 C23.103,13.000 24.000,13.897 24.000,15.000 L24.000,22.000 C24.000,23.103 23.103,24.000 22.000,24.000 ZM15.000,15.000 L15.000,22.000 L21.997,22.000 L22.000,15.000 L15.000,15.000 ZM22.000,11.000 L15.000,11.000 C13.897,11.000 13.000,10.103 13.000,9.000 L13.000,2.000 C13.000,0.897 13.897,0.000 15.000,0.000 L22.000,0.000 C23.103,0.000 24.000,0.897 24.000,2.000 L24.000,9.000 C24.000,10.103 23.103,11.000 22.000,11.000 ZM15.000,2.000 L15.000,9.000 L21.997,9.000 L22.000,2.000 L15.000,2.000 ZM9.002,24.000 L2.000,24.000 C0.897,24.000 0.000,23.103 0.000,22.000 L0.000,15.000 C0.000,13.897 0.897,13.000 2.000,13.000 L9.002,13.000 C10.105,13.000 11.002,13.897 11.002,15.000 L11.002,22.000 C11.002,23.103 10.105,24.000 9.002,24.000 ZM2.000,15.000 L2.000,22.000 L8.999,22.000 L9.002,15.000 L2.000,15.000 ZM9.002,11.000 L2.000,11.000 C0.897,11.000 0.000,10.103 0.000,9.000 L0.000,2.000 C0.000,0.897 0.897,0.000 2.000,0.000 L9.002,0.000 C10.105,0.000 11.002,0.897 11.002,2.000 L11.002,9.000 C11.002,10.103 10.105,11.000 9.002,11.000 ZM2.000,2.000 L2.000,9.000 L8.999,9.000 L9.002,2.000 L2.000,2.000 Z" class="cls-1"/> </symbol><symbol viewBox="0 0 169.063 169.063" id="icon-instagram"><g><path d="M122.406,0H46.654C20.929,0,0,20.93,0,46.655v75.752c0,25.726,20.929,46.655,46.654,46.655h75.752c25.727,0,46.656-20.93,46.656-46.655V46.655C169.063,20.93,148.133,0,122.406,0z M154.063,122.407c0,17.455-14.201,31.655-31.656,31.655H46.654C29.2,154.063,15,139.862,15,122.407V46.655C15,29.201,29.2,15,46.654,15h75.752c17.455,0,31.656,14.201,31.656,31.655V122.407z"/><path d="M84.531,40.97c-24.021,0-43.563,19.542-43.563,43.563c0,24.02,19.542,43.561,43.563,43.561s43.563-19.541,43.563-43.561C128.094,60.512,108.552,40.97,84.531,40.97z M84.531,113.093c-15.749,0-28.563-12.812-28.563-28.561c0-15.75,12.813-28.563,28.563-28.563s28.563,12.813,28.563,28.563C113.094,100.281,100.28,113.093,84.531,113.093z"/><path d="M129.921,28.251c-2.89,0-5.729,1.17-7.77,3.22c-2.051,2.04-3.23,4.88-3.23,7.78c0,2.891,1.18,5.73,3.23,7.78c2.04,2.04,4.88,3.22,7.77,3.22c2.9,0,5.73-1.18,7.78-3.22c2.05-2.05,3.22-4.89,3.22-7.78c0-2.9-1.17-5.74-3.22-7.78C135.661,29.421,132.821,28.251,129.921,28.251z"/></g></symbol><symbol viewBox="0 0 24 24" id="icon-keyboard-arrow-down"><path d="M7.41 7.84L12 12.42l4.59-4.58L18 9.25l-6 6-6-6z"/></symbol><symbol viewBox="0 0 24 24" id="icon-keyboard-arrow-up"><path d="M7.41 15.41L12 10.83l4.59 4.58L18 14l-6-6-6 6z"/></symbol><symbol viewBox="0 0 32 32" id="icon-linkedin"> <path d="M27.2684444,27.2675556 L22.5226667,27.2675556 L22.5226667,19.8408889 C22.5226667,18.0702222 22.4924444,15.792 20.0568889,15.792 C17.5866667,15.792 17.2097778,17.7217778 17.2097778,19.7146667 L17.2097778,27.2675556 L12.4693333,27.2675556 L12.4693333,11.9964444 L17.0186667,11.9964444 L17.0186667,14.0844444 L17.0844444,14.0844444 C17.7173333,12.8835556 19.2657778,11.6177778 21.5742222,11.6177778 C26.3804444,11.6177778 27.2684444,14.7795556 27.2684444,18.8924444 L27.2684444,27.2675556 L27.2684444,27.2675556 Z M7.11822222,9.91022222 C5.59377778,9.91022222 4.36444444,8.67733333 4.36444444,7.15733333 C4.36444444,5.63822222 5.59377778,4.40533333 7.11822222,4.40533333 C8.63644444,4.40533333 9.86844444,5.63822222 9.86844444,7.15733333 C9.86844444,8.67733333 8.63644444,9.91022222 7.11822222,9.91022222 L7.11822222,9.91022222 Z M4.74133333,11.9964444 L9.49244444,11.9964444 L9.49244444,27.2675556 L4.74133333,27.2675556 L4.74133333,11.9964444 Z M29.632,0 L2.36,0 C1.05777778,0 0,1.03288889 0,2.30755556 L0,29.6906667 C0,30.9653333 1.05777778,32 2.36,32 L29.632,32 C30.9368889,32 31.9991111,30.9653333 31.9991111,29.6906667 L31.9991111,2.30755556 C31.9991111,1.03288889 30.9368889,0 29.632,0 L29.632,0 Z" id="linkedin-Fill-4"/> </symbol><symbol viewBox="0 0 24 20" id="icon-list-view"> <path d="M23.000,2.000 L1.000,2.000 C0.448,2.000 0.000,1.552 0.000,1.000 C0.000,0.448 0.448,-0.000 1.000,-0.000 L23.000,-0.000 C23.552,-0.000 24.000,0.448 24.000,1.000 C24.000,1.552 23.552,2.000 23.000,2.000 ZM1.000,6.000 L15.001,6.000 C15.553,6.000 16.001,6.448 16.001,7.000 C16.001,7.552 15.553,8.000 15.001,8.000 L1.000,8.000 C0.448,8.000 0.000,7.552 0.000,7.000 C0.000,6.448 0.448,6.000 1.000,6.000 ZM1.000,12.000 L23.000,12.000 C23.552,12.000 24.000,12.448 24.000,13.000 C24.000,13.552 23.552,14.000 23.000,14.000 L1.000,14.000 C0.448,14.000 0.000,13.552 0.000,13.000 C0.000,12.448 0.448,12.000 1.000,12.000 ZM1.000,18.000 L15.001,18.000 C15.553,18.000 16.001,18.448 16.001,19.000 C16.001,19.552 15.553,20.000 15.001,20.000 L1.000,20.000 C0.448,20.000 0.000,19.552 0.000,19.000 C0.000,18.448 0.448,18.000 1.000,18.000 Z" class="cls-1"/> </symbol><symbol viewBox="0 0 24 24" id="icon-lock"><path d="M18 8h-1V6c0-2.76-2.24-5-5-5S7 3.24 7 6v2H6c-1.1 0-2 .9-2 2v10c0 1.1.9 2 2 2h12c1.1 0 2-.9 2-2V10c0-1.1-.9-2-2-2zm-6 9c-1.1 0-2-.9-2-2s.9-2 2-2 2 .9 2 2-.9 2-2 2zm3.1-9H8.9V6c0-1.71 1.39-3.1 3.1-3.1 1.71 0 3.1 1.39 3.1 3.1v2z"/></symbol><symbol viewBox="2.167 .438 251.038 259.969" id="icon-logo-amazon"><g fill="none" fill-rule="evenodd"><path d="m221.503 210.324c-105.235 50.083-170.545 8.18-212.352-17.271-2.587-1.604-6.984.375-3.169 4.757 13.928 16.888 59.573 57.593 119.153 57.593 59.621 0 95.09-32.532 99.527-38.207 4.407-5.627 1.294-8.731-3.16-6.872zm29.555-16.322c-2.826-3.68-17.184-4.366-26.22-3.256-9.05 1.078-22.634 6.609-21.453 9.93.606 1.244 1.843.686 8.06.127 6.234-.622 23.698-2.826 27.337 1.931 3.656 4.79-5.57 27.608-7.255 31.288-1.628 3.68.622 4.629 3.68 2.178 3.016-2.45 8.476-8.795 12.14-17.774 3.639-9.028 5.858-21.622 3.71-24.424z" fill="#f90" fill-rule="nonzero"/><path d="m150.744 108.13c0 13.141.332 24.1-6.31 35.77-5.361 9.489-13.853 15.324-23.341 15.324-12.952 0-20.495-9.868-20.495-24.432 0-28.75 25.76-33.968 50.146-33.968zm34.015 82.216c-2.23 1.992-5.456 2.135-7.97.806-11.196-9.298-13.189-13.615-19.356-22.487-18.502 18.882-31.596 24.527-55.601 24.527-28.37 0-50.478-17.506-50.478-52.565 0-27.373 14.85-46.018 35.96-55.126 18.313-8.066 43.884-9.489 63.43-11.718v-4.365c0-8.018.616-17.506-4.08-24.432-4.128-6.215-12.003-8.777-18.93-8.777-12.856 0-24.337 6.594-27.136 20.257-.57 3.037-2.799 6.026-5.835 6.168l-32.735-3.51c-2.751-.618-5.787-2.847-5.028-7.07 7.543-39.66 43.36-51.616 75.43-51.616 16.415 0 37.858 4.365 50.81 16.795 16.415 15.323 14.849 35.77 14.849 58.02v52.565c0 15.798 6.547 22.724 12.714 31.264 2.182 3.036 2.657 6.69-.095 8.966-6.879 5.74-19.119 16.415-25.855 22.393l-.095-.095" fill="#000"/><path d="m221.503 210.324c-105.235 50.083-170.545 8.18-212.352-17.271-2.587-1.604-6.984.375-3.169 4.757 13.928 16.888 59.573 57.593 119.153 57.593 59.621 0 95.09-32.532 99.527-38.207 4.407-5.627 1.294-8.731-3.16-6.872zm29.555-16.322c-2.826-3.68-17.184-4.366-26.22-3.256-9.05 1.078-22.634 6.609-21.453 9.93.606 1.244 1.843.686 8.06.127 6.234-.622 23.698-2.826 27.337 1.931 3.656 4.79-5.57 27.608-7.255 31.288-1.628 3.68.622 4.629 3.68 2.178 3.016-2.45 8.476-8.795 12.14-17.774 3.639-9.028 5.858-21.622 3.71-24.424z" fill="#f90" fill-rule="nonzero"/><path d="m150.744 108.13c0 13.141.332 24.1-6.31 35.77-5.361 9.489-13.853 15.324-23.341 15.324-12.952 0-20.495-9.868-20.495-24.432 0-28.75 25.76-33.968 50.146-33.968zm34.015 82.216c-2.23 1.992-5.456 2.135-7.97.806-11.196-9.298-13.189-13.615-19.356-22.487-18.502 18.882-31.596 24.527-55.601 24.527-28.37 0-50.478-17.506-50.478-52.565 0-27.373 14.85-46.018 35.96-55.126 18.313-8.066 43.884-9.489 63.43-11.718v-4.365c0-8.018.616-17.506-4.08-24.432-4.128-6.215-12.003-8.777-18.93-8.777-12.856 0-24.337 6.594-27.136 20.257-.57 3.037-2.799 6.026-5.835 6.168l-32.735-3.51c-2.751-.618-5.787-2.847-5.028-7.07 7.543-39.66 43.36-51.616 75.43-51.616 16.415 0 37.858 4.365 50.81 16.795 16.415 15.323 14.849 35.77 14.849 58.02v52.565c0 15.798 6.547 22.724 12.714 31.264 2.182 3.036 2.657 6.69-.095 8.966-6.879 5.74-19.119 16.415-25.855 22.393l-.095-.095" fill="#000"/></g></symbol><symbol viewBox="0 0 176.515 33.863" id="icon-logo-amazonpay"> <path d=" M 69.652 26.489 C 63.129 31.303 53.672 33.863 45.528 33.863 C 34.115 33.863 23.837 29.644 16.059 22.621 C 15.449 22.069 15.993 21.316 16.727 21.743 C 25.118 26.626 35.496 29.567 46.213 29.567 C 53.443 29.567 61.391 28.066 68.704 24.964 C 69.807 24.497 70.732 25.691 69.652 26.489 Z " fill-rule="evenodd"/> <path d=" M 72.367 23.389 C 71.532 22.321 66.852 22.883 64.749 23.135 C 64.112 23.212 64.013 22.655 64.587 22.252 C 68.321 19.629 74.44 20.386 75.151 21.265 C 75.867 22.15 74.962 28.285 71.464 31.212 C 70.925 31.662 70.413 31.422 70.652 30.828 C 71.44 28.861 73.202 24.459 72.367 23.389 Z " fill-rule="evenodd"/> <path d=" M 64.897 3.724 L 64.897 1.176 C 64.899 0.788 65.191 0.53 65.543 0.531 L 76.965 0.53 C 77.33 0.53 77.624 0.795 77.624 1.173 L 77.624 3.358 C 77.62 3.725 77.311 4.203 76.764 4.962 L 70.847 13.41 C 73.043 13.359 75.366 13.688 77.362 14.809 C 77.812 15.062 77.933 15.437 77.968 15.804 L 77.968 18.523 C 77.968 18.898 77.558 19.331 77.126 19.106 C 73.611 17.264 68.946 17.063 65.058 19.128 C 64.661 19.34 64.246 18.912 64.246 18.537 L 64.246 15.952 C 64.246 15.539 64.254 14.831 64.671 14.201 L 71.525 4.367 L 65.557 4.366 C 65.192 4.366 64.899 4.106 64.897 3.724 Z " fill-rule="evenodd"/> <path d=" M 23.233 19.641 L 19.758 19.641 C 19.427 19.62 19.163 19.372 19.136 19.054 L 19.139 1.219 C 19.139 0.863 19.439 0.578 19.81 0.578 L 23.046 0.577 C 23.384 0.594 23.656 0.85 23.677 1.176 L 23.677 3.504 L 23.743 3.504 C 24.586 1.252 26.175 0.201 28.316 0.201 C 30.489 0.201 31.852 1.252 32.825 3.504 C 33.668 1.252 35.582 0.201 37.625 0.201 C 39.085 0.201 40.674 0.802 41.647 2.153 C 42.75 3.655 42.524 5.831 42.524 7.745 L 42.52 19 C 42.52 19.355 42.221 19.641 41.85 19.641 L 38.38 19.641 C 38.03 19.619 37.756 19.343 37.756 19.001 L 37.755 9.546 C 37.755 8.796 37.82 6.92 37.657 6.207 C 37.398 5.005 36.62 4.667 35.615 4.667 C 34.771 4.667 33.895 5.23 33.538 6.13 C 33.181 7.032 33.214 8.532 33.214 9.546 L 33.214 19 C 33.214 19.355 32.914 19.641 32.544 19.641 L 29.073 19.641 C 28.724 19.619 28.449 19.343 28.449 19.001 L 28.445 9.546 C 28.445 7.557 28.77 4.631 26.305 4.631 C 23.807 4.631 23.905 7.482 23.905 9.546 L 23.903 19 C 23.903 19.355 23.603 19.641 23.233 19.641 Z " fill-rule="evenodd"/> <path d=" M 87.488 3.842 C 84.926 3.842 84.764 7.331 84.764 9.508 C 84.764 11.685 84.732 16.339 87.457 16.339 C 90.149 16.339 90.279 12.586 90.279 10.297 C 90.279 8.796 90.213 6.994 89.759 5.568 C 89.37 4.329 88.591 3.842 87.488 3.842 Z  M 87.457 0.201 C 92.614 0.201 95.403 4.631 95.403 10.26 C 95.403 15.7 92.322 20.017 87.457 20.017 C 82.396 20.017 79.639 15.588 79.639 10.072 C 79.639 4.517 82.428 0.201 87.457 0.201 Z " fill-rule="evenodd"/> <path d=" M 102.092 19.641 L 98.629 19.641 C 98.282 19.619 98.006 19.343 98.006 19.001 L 98 1.16 C 98.03 0.833 98.318 0.578 98.668 0.578 L 101.891 0.577 C 102.195 0.593 102.445 0.799 102.509 1.076 L 102.509 3.804 L 102.574 3.804 C 103.548 1.364 104.909 0.201 107.309 0.201 C 108.866 0.201 110.391 0.764 111.364 2.303 C 112.272 3.729 112.272 6.13 112.272 7.857 L 112.272 19.08 C 112.234 19.396 111.95 19.641 111.606 19.641 L 108.123 19.641 C 107.801 19.621 107.542 19.384 107.504 19.08 L 107.504 9.397 C 107.504 7.445 107.732 4.592 105.331 4.592 C 104.488 4.592 103.709 5.155 103.32 6.018 C 102.833 7.107 102.768 8.195 102.768 9.397 L 102.768 19 C 102.762 19.355 102.462 19.641 102.092 19.641 Z " fill-rule="evenodd"/> <path d=" M 59.294 19.597 C 59.065 19.803 58.734 19.817 58.474 19.678 C 57.32 18.719 57.113 18.276 56.482 17.362 C 54.575 19.305 53.224 19.888 50.753 19.888 C 47.828 19.888 45.552 18.082 45.552 14.472 C 45.552 11.651 47.081 9.733 49.258 8.793 C 51.143 7.965 53.776 7.815 55.792 7.589 L 55.792 7.138 C 55.792 6.309 55.857 5.333 55.369 4.618 C 54.946 3.978 54.134 3.715 53.419 3.715 C 52.093 3.715 50.916 4.394 50.626 5.801 C 50.565 6.114 50.337 6.425 50.023 6.441 L 46.654 6.076 C 46.37 6.011 46.054 5.783 46.135 5.349 C 46.9 1.32 50.498 0.064 53.768 0.03 L 54.026 0.03 C 55.7 0.051 57.838 0.51 59.14 1.759 C 60.831 3.339 60.667 5.445 60.667 7.74 L 60.667 13.153 C 60.667 14.782 61.344 15.496 61.979 16.373 C 62.202 16.69 62.251 17.065 61.968 17.297 C 61.258 17.892 59.997 18.987 59.304 19.605 L 59.294 19.597 Z  M 55.792 11.125 C 55.792 12.479 55.824 13.607 55.142 14.811 C 54.589 15.788 53.711 16.39 52.736 16.39 C 51.404 16.39 50.624 15.375 50.624 13.87 C 50.624 10.91 53.278 10.372 55.792 10.372 L 55.792 11.125 Z " fill-rule="evenodd"/> <path d=" M 13.743 19.597 C 13.513 19.803 13.181 19.817 12.922 19.678 C 11.767 18.719 11.56 18.276 10.93 17.362 C 9.022 19.305 7.672 19.888 5.201 19.888 C 2.276 19.888 0 18.082 0 14.472 C 0 11.651 1.527 9.733 3.706 8.793 C 5.591 7.965 8.224 7.815 10.239 7.589 L 10.239 7.138 C 10.239 6.309 10.305 5.333 9.817 4.618 C 9.394 3.978 8.581 3.715 7.867 3.715 C 6.541 3.715 5.362 4.394 5.074 5.801 C 5.014 6.114 4.785 6.425 4.47 6.441 L 1.102 6.076 C 0.817 6.011 0.501 5.783 0.583 5.349 C 1.346 1.32 4.945 0.064 8.216 0.03 L 8.474 0.03 C 10.148 0.051 12.286 0.51 13.588 1.759 C 15.278 3.339 15.115 5.445 15.115 7.74 L 15.115 13.153 C 15.115 14.782 15.792 15.496 16.427 16.373 C 16.648 16.69 16.699 17.065 16.416 17.297 C 15.706 17.892 14.444 18.987 13.751 19.605 L 13.743 19.597 Z  M 10.239 11.125 C 10.239 12.479 10.272 13.607 9.589 14.811 C 9.037 15.788 8.159 16.39 7.183 16.39 C 5.851 16.39 5.071 15.375 5.071 13.87 C 5.071 10.91 7.726 10.372 10.239 10.372 L 10.239 11.125 Z " fill-rule="evenodd"/> <path d=" M 159.773 26.039 C 159.773 25.587 159.773 25.181 159.773 24.729 C 159.773 24.356 159.956 24.099 160.345 24.122 C 161.071 24.225 162.098 24.328 162.827 24.178 C 163.779 23.98 164.462 23.305 164.866 22.38 C 165.435 21.078 165.812 20.028 166.05 19.339 L 158.821 1.431 C 158.699 1.127 158.663 0.563 159.27 0.563 L 161.797 0.563 C 162.279 0.563 162.475 0.869 162.583 1.169 L 167.824 15.715 L 172.827 1.169 C 172.929 0.871 173.134 0.563 173.612 0.563 L 175.995 0.563 C 176.598 0.563 176.564 1.126 176.444 1.431 L 169.273 19.898 C 168.345 22.356 167.109 26.271 164.325 26.951 C 162.929 27.316 161.168 27.184 160.134 26.751 C 159.873 26.62 159.773 26.27 159.773 26.039 Z " fill-rule="evenodd"/> <path d=" M 156.402 18.55 C 156.402 18.883 156.129 19.156 155.794 19.156 L 154.012 19.156 C 153.627 19.156 153.364 18.878 153.315 18.55 L 153.136 17.337 C 152.317 18.03 151.312 18.639 150.222 19.063 C 148.126 19.877 145.71 20.012 143.662 18.754 C 142.181 17.845 141.395 16.068 141.395 14.235 C 141.395 12.817 141.832 11.411 142.801 10.39 C 144.094 8.995 145.968 8.31 148.231 8.31 C 149.598 8.31 151.554 8.471 152.977 8.936 L 152.977 6.495 C 152.977 4.013 151.932 2.939 149.177 2.939 C 147.071 2.939 145.46 3.257 143.218 3.954 C 142.859 3.966 142.649 3.693 142.649 3.36 L 142.649 1.968 C 142.649 1.634 142.934 1.311 143.243 1.213 C 144.844 0.515 147.112 0.08 149.523 0 C 152.666 0 156.402 0.709 156.402 5.543 L 156.402 18.55 Z  M 152.977 14.986 L 152.977 11.303 C 151.781 10.976 149.802 10.84 149.036 10.84 C 147.826 10.84 146.501 11.126 145.809 11.871 C 145.292 12.417 145.058 13.201 145.058 13.959 C 145.058 14.939 145.397 15.922 146.189 16.408 C 147.109 17.033 148.536 16.957 149.877 16.576 C 151.166 16.21 152.376 15.563 152.977 14.986 Z " fill-rule="evenodd"/> <path d=" M 130.127 2.994 C 134.081 2.994 135.158 6.103 135.158 9.663 C 135.18 12.063 134.739 14.203 133.496 15.428 C 132.566 16.345 131.527 16.595 129.963 16.595 C 128.571 16.595 126.74 15.869 125.372 14.858 L 125.372 4.679 C 126.796 3.585 128.613 2.994 130.127 2.994 Z  M 124.766 26.678 L 122.379 26.678 C 122.045 26.678 121.772 26.405 121.772 26.072 C 121.772 17.782 121.772 9.491 121.772 1.201 C 121.772 0.868 122.045 0.595 122.379 0.595 L 124.206 0.595 C 124.59 0.595 124.853 0.873 124.902 1.201 L 125.094 2.504 C 126.805 0.985 129.008 0.011 131.107 0.011 C 136.986 0.011 138.919 4.855 138.919 9.892 C 138.919 15.281 135.962 19.611 130.961 19.611 C 128.855 19.611 126.886 18.834 125.372 17.484 L 125.372 26.072 C 125.372 26.405 125.099 26.678 124.766 26.678 Z " fill-rule="evenodd"/></symbol><symbol viewBox="0 0 70 32" id="icon-logo-american-express"> <path d="M69.102 17.219l0.399 9.094c-0.688 0.313-3.285 1.688-4.26 1.688h-4.788v-0.656c-0.546 0.438-1.549 0.656-2.467 0.656h-15.053v-2.466c0-0.344-0.057-0.344-0.345-0.344h-0.257v2.81h-4.961v-2.924c-0.832 0.402-1.749 0.402-2.581 0.402h-0.544v2.523h-6.050l-1.434-1.656-1.577 1.656h-9.72v-10.781h9.892l1.405 1.663 1.548-1.663h6.652c0.775 0 2.037 0.115 2.581 0.66v-0.66h5.936c0.602 0 1.749 0.115 2.523 0.66v-0.66h8.946v0.66c0.516-0.43 1.433-0.66 2.265-0.66h4.988v0.66c0.546-0.372 1.32-0.66 2.323-0.66h4.578zM34.905 23.871c1.577 0 3.183-0.43 3.183-2.581 0-2.093-1.635-2.523-3.069-2.523h-5.878l-2.38 2.523-2.236-2.523h-7.427v7.67h7.312l2.351-2.509 2.266 2.509h3.556v-2.566h2.322zM46.001 23.556c-0.172-0.23-0.487-0.516-0.946-0.66 0.516-0.172 1.318-0.832 1.318-2.036 0-0.889-0.315-1.377-0.917-1.721-0.602-0.315-1.319-0.372-2.266-0.372h-4.215v7.67h1.864v-2.796h1.978c0.66 0 1.032 0.058 1.319 0.344 0.316 0.373 0.316 1.032 0.316 1.548v0.903h1.836v-1.477c0-0.688-0.058-1.032-0.288-1.405zM53.571 20.373v-1.605h-6.136v7.67h6.136v-1.563h-4.33v-1.549h4.244v-1.548h-4.244v-1.405h4.33zM58.245 26.438c1.864 0 2.926-0.759 2.926-2.393 0-0.774-0.23-1.262-0.545-1.664-0.459-0.372-1.119-0.602-2.151-0.602h-1.004c-0.258 0-0.487-0.057-0.717-0.115-0.201-0.086-0.373-0.258-0.373-0.545 0-0.258 0.058-0.43 0.287-0.602 0.143-0.115 0.373-0.115 0.717-0.115h3.383v-1.634h-3.671c-1.978 0-2.638 1.204-2.638 2.294 0 2.438 2.151 2.322 3.842 2.38 0.344 0 0.544 0.058 0.66 0.173 0.115 0.086 0.23 0.315 0.23 0.544 0 0.201-0.115 0.373-0.23 0.488-0.173 0.115-0.373 0.172-0.717 0.172h-3.555v1.62h3.555zM65.442 26.439c1.864 0 2.924-0.76 2.924-2.394 0-0.774-0.229-1.262-0.544-1.664-0.459-0.372-1.119-0.602-2.151-0.602h-1.003c-0.258 0-0.488-0.057-0.718-0.115-0.201-0.086-0.373-0.258-0.373-0.545 0-0.258 0.115-0.43 0.287-0.602 0.144-0.115 0.373-0.115 0.717-0.115h3.383v-1.634h-3.671c-1.921 0-2.638 1.204-2.638 2.294 0 2.438 2.151 2.322 3.842 2.38 0.344 0 0.544 0.058 0.66 0.174 0.115 0.086 0.229 0.315 0.229 0.544 0 0.201-0.114 0.373-0.229 0.488s-0.373 0.172-0.717 0.172h-3.556v1.62h3.556zM43.966 20.518c0.23 0.115 0.373 0.344 0.373 0.659 0 0.344-0.143 0.602-0.373 0.774-0.287 0.115-0.545 0.115-0.889 0.115l-2.237 0.058v-1.749h2.237c0.344 0 0.659 0 0.889 0.143zM36.108 8.646c-0.287 0.172-0.544 0.172-0.918 0.172h-2.265v-1.692h2.265c0.316 0 0.688 0 0.918 0.114 0.23 0.144 0.344 0.374 0.344 0.718 0 0.315-0.114 0.602-0.344 0.689zM50.789 6.839l1.262 3.039h-2.523zM30.775 25.792l-2.838-3.183 2.838-3.011v6.193zM35.019 20.373c0.66 0 1.090 0.258 1.090 0.918s-0.43 1.032-1.090 1.032h-2.437v-1.95h2.437zM5.773 9.878l1.291-3.039 1.262 3.039h-2.552zM18.905 20.372l4.616 0 2.036 2.237-2.093 2.265h-4.559v-1.549h4.071v-1.548h-4.071v-1.405zM19.077 13.376l-0.545 1.377h-3.24l-0.546-1.319v1.319h-6.222l-0.66-1.749h-1.577l-0.717 1.749h-5.572l2.389-5.649 2.237-5.104h4.789l0.659 1.262v-1.262h5.591l1.262 2.724 1.233-2.724h17.835c0.832 0 1.548 0.143 2.093 0.602v-0.602h4.903v0.602c0.803-0.459 1.864-0.602 3.068-0.602h7.082l0.66 1.262v-1.262h5.218l0.775 1.262v-1.262h5.103v10.753h-5.161l-1.003-1.635v1.635h-6.423l-0.717-1.749h-1.577l-0.717 1.749h-3.355c-1.318 0-2.294-0.316-2.954-0.659v0.659h-7.971v-2.466c0-0.344-0.057-0.402-0.286-0.402h-0.258v2.867h-15.398v-1.377zM43.363 6.409c-0.832 0.831-0.975 1.864-1.004 3.011 0 1.377 0.344 2.266 0.947 2.925 0.659 0.66 1.806 0.86 2.695 0.86h2.151l0.716-1.692h3.843l0.717 1.692h3.727v-5.763l3.47 5.763h2.638v-7.684h-1.892v5.333l-3.24-5.333h-2.839v7.254l-3.096-7.254h-2.724l-2.638 6.050h-0.832c-0.487 0-1.003-0.115-1.262-0.373-0.344-0.402-0.488-1.004-0.488-1.836 0-0.803 0.144-1.405 0.488-1.748 0.373-0.316 0.774-0.431 1.434-0.431h1.749v-1.663h-1.749c-1.262 0-2.265 0.286-2.81 0.889zM39.579 5.52v7.684h1.863v-7.684h-1.863zM31.12 5.52l-0 7.685h1.806v-2.781h1.979c0.66 0 1.090 0.057 1.376 0.315 0.316 0.401 0.258 1.061 0.258 1.491v0.975h1.892v-1.519c0-0.66-0.057-1.004-0.344-1.377-0.172-0.229-0.487-0.488-0.889-0.659 0.516-0.23 1.319-0.832 1.319-2.036 0-0.889-0.373-1.377-0.976-1.75-0.602-0.344-1.262-0.344-2.208-0.344h-4.215zM23.636 5.521v7.685h6.165v-1.577h-4.301v-1.549h4.244v-1.577h-4.244v-1.377h4.301v-1.606h-6.165zM16.124 13.205h1.577l2.695-6.021v6.021h1.864v-7.684h-3.011l-2.265 5.219-2.409-5.219h-2.953v7.254l-3.154-7.254h-2.724l-3.297 7.684h1.978l0.688-1.692h3.871l0.688 1.692h3.756v-6.021z"/> </symbol><symbol viewBox="0 0 291.764 291.764" id="icon-logo-amex"><g><path style="fill:transparent;" d="M18.235,41.025h255.294c10.066,0,18.235,8.169,18.235,18.244v173.235c0,10.066-8.169,18.235-18.235,18.235H18.235C8.16,250.74,0,242.57,0,232.505V59.269C0,49.194,8.169,41.025,18.235,41.025z"/><path style="fill:#26A6D1;" d="M47.047,113.966l-28.812,63.76h34.492l4.276-10.166h9.774l4.276,10.166h37.966v-7.759l3.383,7.759h19.639l3.383-7.923v7.923h78.959l9.601-9.902l8.99,9.902l40.555,0.082l-28.903-31.784l28.903-32.058h-39.926l-9.346,9.719l-8.707-9.719h-85.897l-7.376,16.457l-7.549-16.457h-34.42v7.495l-3.829-7.495C76.479,113.966,47.047,113.966,47.047,113.966z M53.721,123.02h16.813l19.111,43.236V123.02h18.418l14.761,31l13.604-31h18.326v45.752h-11.151l-0.091-35.851l-16.257,35.851h-9.975l-16.348-35.851v35.851h-22.94l-4.349-10.257H50.147l-4.34,10.248H33.516C33.516,168.763,53.721,123.02,53.721,123.02z M164.956,123.02h45.342L224.166,138l14.315-14.98h13.868l-21.071,22.995l21.071,22.73h-14.497l-13.868-15.154l-14.388,15.154h-44.64L164.956,123.02L164.956,123.02z M61.9,130.761l-7.741,18.272h15.473L61.9,130.761z M176.153,132.493v8.352h24.736v9.309h-24.736v9.118h27.745l12.892-13.43l-12.345-13.357h-28.292L176.153,132.493z"/></g></symbol><symbol viewBox="0 0 120.3 51.2" id="icon-logo-apple-pay"><path d="M22.8 6.6c1.4-1.8 2.4-4.2 2.1-6.6-2.1.1-4.6 1.4-6.1 3.1-1.3 1.5-2.5 4-2.2 6.3 2.4.3 4.7-1 6.2-2.8M24.9 10c-3.4-.2-6.3 1.9-7.9 1.9-1.6 0-4.1-1.8-6.8-1.8-3.5.1-6.7 2-8.5 5.2-3.6 6.3-1 15.6 2.6 20.7 1.7 2.5 3.8 5.3 6.5 5.2 2.6-.1 3.6-1.7 6.7-1.7s4 1.7 6.8 1.6 4.6-2.5 6.3-5.1c2-2.9 2.8-5.7 2.8-5.8-.1-.1-5.5-2.1-5.5-8.3-.1-5.2 4.2-7.7 4.4-7.8-2.3-3.6-6.1-4-7.4-4.1"/><g><path d="M54.3 2.9c7.4 0 12.5 5.1 12.5 12.4 0 7.4-5.2 12.5-12.7 12.5H46v12.9h-5.9V2.9h14.2zm-8.3 20h6.7c5.1 0 8-2.8 8-7.5 0-4.8-2.9-7.5-8-7.5h-6.8v15h.1zM68.3 33c0-4.8 3.7-7.8 10.3-8.2l7.6-.4v-2.1c0-3.1-2.1-4.9-5.5-4.9-3.3 0-5.3 1.6-5.8 4h-5.4c.3-5 4.6-8.7 11.4-8.7 6.7 0 11 3.5 11 9.1v19h-5.4v-4.5h-.1c-1.6 3.1-5.1 5-8.7 5-5.6 0-9.4-3.4-9.4-8.3zm17.9-2.5v-2.2l-6.8.4c-3.4.2-5.3 1.7-5.3 4.1 0 2.4 2 4 5 4 4 0 7.1-2.7 7.1-6.3zM96.9 51v-4.6c.4.1 1.4.1 1.8.1 2.6 0 4-1.1 4.9-3.9 0-.1.5-1.7.5-1.7l-10-27.6h6.1l7 22.5h.1l7-22.5h6L110 42.4c-2.4 6.7-5.1 8.8-10.8 8.8-.4-.1-1.8-.1-2.3-.2z"/></g></symbol><symbol viewBox="0 0 95 32" id="icon-logo-discover"> <path d="M50.431 8.059c4.546 0 8.092 3.49 8.092 7.936 0 4.471-3.571 7.961-8.093 7.961-4.638 0-8.115-3.444-8.115-8.051 0-4.334 3.635-7.845 8.115-7.845zM4.362 8.345c4.811 0 8.168 3.133 8.168 7.64 0 2.247-1.028 4.422-2.761 5.864-1.461 1.214-3.126 1.761-5.429 1.761h-4.339v-15.265h4.362zM7.832 19.81c1.027-0.912 1.639-2.379 1.639-3.847 0-1.464-0.612-2.882-1.639-3.798-0.984-0.892-2.146-1.235-4.065-1.235h-0.797v10.096h0.797c1.919 0 3.127-0.367 4.065-1.216zM13.9 23.611v-15.265h2.965v15.265h-2.965zM24.123 14.201c3.378 1.238 4.379 2.338 4.379 4.764 0 2.952-2.166 5.015-5.247 5.015-2.261 0-3.904-0.896-5.271-2.907l1.914-1.856c0.685 1.328 1.825 2.036 3.24 2.036 1.325 0 2.308-0.915 2.308-2.152 0-0.641-0.298-1.189-0.891-1.578-0.297-0.187-0.889-0.46-2.054-0.87-2.784-1.010-3.742-2.085-3.742-4.192 0-2.493 2.055-4.371 4.745-4.371 1.667 0 3.196 0.571 4.473 1.696l-1.549 2.033c-0.778-0.867-1.508-1.233-2.398-1.233-1.28 0-2.213 0.732-2.213 1.694 0 0.821 0.525 1.258 2.307 1.921zM29.438 15.986c0-4.436 3.605-7.985 8.101-7.985 1.278 0 2.352 0.273 3.653 0.935v3.504c-1.233-1.213-2.308-1.717-3.72-1.717-2.787 0-4.976 2.313-4.976 5.241 0 3.092 2.123 5.267 5.112 5.267 1.347 0 2.397-0.48 3.585-1.671v3.504c-1.347 0.638-2.443 0.892-3.72 0.892-4.519 0-8.034-3.478-8.034-7.97zM65.239 18.601l4.11-10.254h3.216l-6.573 15.655h-1.596l-6.46-15.655h3.24zM73.914 23.612v-15.265h8.418v2.585h-5.453v3.388h5.244v2.585h-5.244v4.123h5.453v2.584h-8.418zM94.081 12.852c0 2.336-1.23 3.87-3.469 4.329l4.794 6.43h-3.651l-4.105-6.135h-0.388v6.135h-2.969v-15.265h4.404c3.425 0 5.384 1.645 5.384 4.506zM88.125 15.372c1.9 0 2.903-0.827 2.903-2.359 0-1.486-1.004-2.266-2.856-2.266h-0.911v4.626h0.863z"/> </symbol><symbol viewBox="0 0 435.97 173.13" id="icon-logo-googlepay"> <path d="M206.2,84.58v50.75H190.1V10h42.7a38.61,38.61,0,0,1,27.65,10.85A34.88,34.88,0,0,1,272,47.3a34.72,34.72,0,0,1-11.55,26.6q-11.2,10.68-27.65,10.67H206.2Zm0-59.15V69.18h27a21.28,21.28,0,0,0,15.93-6.48,21.36,21.36,0,0,0,0-30.63,21,21,0,0,0-15.93-6.65h-27Z"/> <path d="M309.1,46.78q17.85,0,28.18,9.54T347.6,82.48v52.85H332.2v-11.9h-.7q-10,14.7-26.6,14.7-14.17,0-23.71-8.4a26.82,26.82,0,0,1-9.54-21q0-13.31,10.06-21.17t26.86-7.88q14.34,0,23.62,5.25V81.25A18.33,18.33,0,0,0,325.54,67,22.8,22.8,0,0,0,310,61.13q-13.49,0-21.35,11.38l-14.18-8.93Q286.17,46.78,309.1,46.78Zm-20.83,62.3a12.86,12.86,0,0,0,5.34,10.5,19.64,19.64,0,0,0,12.51,4.2,25.67,25.67,0,0,0,18.11-7.52q8-7.53,8-17.67-7.53-6-21-6-9.81,0-16.36,4.73C290.46,100.52,288.27,104.41,288.27,109.08Z"/> <path d="M436,49.58,382.24,173.13H365.62l19.95-43.23L350.22,49.58h17.5l25.55,61.6h.35l24.85-61.6Z"/> <path d="M141.14,73.64A85.79,85.79,0,0,0,139.9,59H72V86.73h38.89a33.33,33.33,0,0,1-14.38,21.88v18h23.21C133.31,114.08,141.14,95.55,141.14,73.64Z"/> <path d="M72,144c19.43,0,35.79-6.38,47.72-17.38l-23.21-18C90.05,113,81.73,115.5,72,115.5c-18.78,0-34.72-12.66-40.42-29.72H7.67v18.55A72,72,0,0,0,72,144Z"/> <path d="M31.58,85.78a43.14,43.14,0,0,1,0-27.56V39.67H7.67a72,72,0,0,0,0,64.66Z"/> <path d="M72,28.5A39.09,39.09,0,0,1,99.62,39.3h0l20.55-20.55A69.18,69.18,0,0,0,72,0,72,72,0,0,0,7.67,39.67L31.58,58.22C37.28,41.16,53.22,28.5,72,28.5Z"/> </symbol><symbol viewBox="0 0 512 512" id="icon-logo-maestro"><path style="fill:#EA001B;" d="M224.719,219.191c0-26.482,12.198-50.109,31.281-65.581c-14.504-11.759-32.981-18.813-53.107-18.813c-46.609,0-84.393,37.783-84.393,84.394c0,46.608,37.784,84.39,84.393,84.39c20.126,0,38.603-7.049,53.107-18.807C236.917,269.296,224.719,245.67,224.719,219.191z"/><path style="fill:#0099DF;" d="M309.109,134.796c-20.126,0-38.605,7.053-53.109,18.813c19.084,15.471,31.282,39.099,31.282,65.581c0,26.479-12.198,50.106-31.282,65.582c14.504,11.758,32.983,18.807,53.109,18.807c46.609,0,84.391-37.782,84.391-84.39S355.718,134.796,309.109,134.796z"/><path style="fill:#6C6BBD;" d="M287.282,219.191c0-26.482-12.198-50.109-31.282-65.581c-19.083,15.471-31.281,39.099-31.281,65.581c0,26.479,12.198,50.106,31.281,65.582C275.084,269.296,287.282,245.67,287.282,219.191z"/></symbol><symbol viewBox="0 0 291.791 291.791" id="icon-logo-mastercard"><g><path style="fill:#E2574C;" d="M182.298,145.895c0,50.366-40.801,91.176-91.149,91.176S0,196.252,0,145.895s40.811-91.176,91.149-91.176S182.298,95.538,182.298,145.895z"/><path style="fill:#F4B459;" d="M200.616,54.719c-20.442,0-39.261,6.811-54.469,18.181l0.073,0.009c2.991,2.89,6.291,4.924,8.835,8.251l-18.965,0.301c-2.972,3-5.68,6.264-8.233,9.656H161.3c2.544,3.054,4.896,5.708,7.03,9.081h-46.536c-1.705,2.936-3.282,5.954-4.659,9.09h56.493c1.477,3.127,2.799,5.489,3.921,8.799h-63.76c-1.012,3.146-1.878,6.364-2.535,9.646h68.966c0.675,3.155,1.194,6.072,1.55,9.045h-71.884c-0.301,3-0.456,6.045-0.456,9.118h72.859c0,3.228-0.228,6.218-0.556,9.118h-71.847c0.31,3.091,0.766,6.127,1.368,9.118h68.856c-0.711,2.954-1.532,5.926-2.562,9.008h-63.969c0.966,3.118,2.143,6.145,3.428,9.099h56.621c-1.568,3.319-3.346,5.972-5.306,9.081h-46.691c1.842,3.191,3.875,6.236,6.081,9.154l33.589,0.501c-2.863,3.437-6.537,5.507-9.884,8.516c0.182,0.146-5.352-0.018-16.248-0.191c16.576,17.105,39.744,27.772,65.446,27.772c50.357,0,91.176-40.82,91.176-91.176S250.981,54.719,200.616,54.719z"/></g></symbol><symbol viewBox="0 0 488.8 488.8" id="icon-logo-paypal"><path style="fill:#32A6CE;" d="M381.6,200.4c-12,0-21.6,3.2-29.6,4.8l-2.4,18.4c4-1.6,15.2-4.8,24.8-5.6c9.6,0,15.2,1.6,13.6,10.4c-28.8,0-48,5.6-52,24.8c-5.6,32,29.6,32.8,43.2,18.4l-1.6,8.8h25.6l11.2-52C418.4,206.8,399.2,199.6,381.6,200.4z M383.2,254c-1.6,6.4-7.2,8.8-13.6,9.6c-5.6,0-10.4-3.2-7.2-9.6c3.2-4.8,10.4-4.8,16-4.8c1.6,0,4,0,6.4,0C384,248.4,383.2,251.6,383.2,254z"/><path style="fill:#1A80AD;" d="M349.6,223.6c4-1.6,15.2-4.8,24.8-5.6c9.6,0,15.2,1.6,13.6,10.4c-28.8,0-48,5.6-52,24.8c-5.6,32,29.6,32.8,43.2,18.4l-1.6,8.8h25.6l11.2-52c4.8-21.6-15.2-27.2-32.8-27.2 M383.2,254c-1.6,6.4-7.2,8.8-13.6,9.6c-5.6,0-10.4-3.2-7.2-9.6c3.2-4.8,10.4-4.8,16-4.8c1.6,0,4,0,6.4,0C384,248.4,383.2,251.6,383.2,254z"/><polygon style="fill:#32A6CE;" points="436,176.4 415.2,280.4 440.8,280.4 462.4,176.4 "/><polygon style="fill:#1A80AD;" points="454.4,176.4 415.2,280.4 440.8,280.4 462.4,176.4 436,176.4 436,176.4 "/><path style="fill:#32A6CE;" d="M316.8,176.4h-47.2l-20.8,104h28l7.2-32h20c19.2,0,35.2-11.2,39.2-31.2C347.2,194,330.4,176.4,316.8,176.4z M316,212.4c-1.6,7.2-8.8,12-16,12h-12.8l5.6-24h13.6C313.6,200.4,317.6,205.2,316,212.4z"/><path style="fill:#1A80AD;" d="M316.8,176.4h-32l-36.8,104h28l7.2-32h20c19.2,0,35.2-11.2,39.2-31.2C347.2,194,330.4,176.4,316.8,176.4z M316,212.4c-1.6,7.2-8.8,12-16,12h-12.8l5.6-24h13.6C313.6,200.4,317.6,205.2,316,212.4z"/><path style="fill:#21789E;" d="M132,200.4c-12,0-21.6,3.2-28.8,4.8l-2.4,18.4c3.2-1.6,15.2-4.8,24.8-5.6c9.6,0,15.2,1.6,13.6,10.4c-28,0-47.2,5.6-51.2,24.8c-5.6,32,28.8,32.8,42.4,18.4l-1.6,8.8h25.6l11.2-52C169.6,206.8,149.6,199.6,132,200.4z M134.4,254c-1.6,6.4-7.2,8.8-13.6,9.6c-5.6,0-10.4-3.2-6.4-9.6c3.2-4.8,10.4-4.8,15.2-4.8c2.4,0,4,0,6.4,0C135.2,248.4,134.4,251.6,134.4,254z"/><path style="fill:#1A5B80;" d="M101.6,223.6c3.2-1.6,15.2-4.8,24.8-5.6c9.6,0,15.2,1.6,13.6,10.4c-28,0-47.2,5.6-51.2,24.8c-5.6,32,28.8,32.8,42.4,18.4l-2.4,8.8h25.6l11.2-52c4.8-21.6-15.2-27.2-32.8-27.2 M134.4,254c-1.6,6.4-7.2,8.8-13.6,9.6c-5.6,0-10.4-3.2-6.4-9.6c3.2-4.8,10.4-4.8,15.2-4.8c2.4,0,4,0,6.4,0C135.2,248.4,134.4,251.6,134.4,254z"/><polygon style="fill:#21789E;" points="176,200.4 201.6,200.4 205.6,245.2 231.2,200.4 257.6,200.4 196.8,312.4 168,312.4 186.4,278.8 "/><polyline style="fill:#1A5B80;" points="201.6,202 205.6,246 231.2,200.4 257.6,200.4 196.8,312.4 168,312.4 186.4,279.6 "/><path style="fill:#21789E;" d="M68.8,176.4h-48L0,280.4h28l7.2-32h20c19.2,0,35.2-11.2,39.2-31.2C99.2,194,82.4,176.4,68.8,176.4z M68,212.4c-1.6,7.2-8.8,12-16,12H39.2l5.6-24h13.6C65.6,200.4,69.6,205.2,68,212.4z"/><path style="fill:#1A5B80;" d="M68.8,176.4H47.2L0,280.4h28l7.2-32h20c19.2,0,35.2-11.2,39.2-31.2C99.2,194,82.4,176.4,68.8,176.4z M68,212.4c-1.6,7.2-8.8,12-16,12H39.2l5.6-24h13.6C65.6,200.4,69.6,205.2,68,212.4z"/><g><path style="fill:#06435E;" d="M127.2,228.4c-21.6,1.6-36,8-39.2,24c-5.6,32,28.8,32.8,42.4,18.4l-1.6,9.6h25.6l4-19.2L127.2,228.4z M134.4,254c-1.6,6.4-7.2,8.8-13.6,9.6c-5.6,0-10.4-3.2-6.4-9.6c3.2-4.8,10.4-4.8,15.2-4.8c2.4,0,4,0,6.4,0C135.2,248.4,134.4,251.6,134.4,254z"/><polygon style="fill:#06435E;" points="207.2,244.4 205.6,246.8 222.4,262.8 257.6,200.4 231.2,200.4 "/><polygon style="fill:#06435E;" points="28,280.4 35.2,248.4 2.4,280.4 "/></g><g><polygon style="fill:#2273AA;" points="276,280.4 283.2,246.8 283.2,247.6 250.4,280.4 "/><path style="fill:#2273AA;" d="M376,228.4c-21.6,1.6-36,8-39.2,24c-5.6,32,29.6,32.8,43.2,18.4l-2.4,9.6h25.6l4-19.2L376,228.4z M383.2,254c-1.6,6.4-7.2,8.8-13.6,9.6c-5.6,0-10.4-3.2-7.2-9.6c3.2-4.8,10.4-4.8,16-4.8c1.6,0,4,0,6.4,0C384,248.4,383.2,251.6,383.2,254z"/><polygon style="fill:#2273AA;" points="433.6,233.2 415.2,280.4 440.8,280.4 448,248.4 "/></g></symbol><symbol viewBox="0 0 26 26" id="icon-logo-small"><path d="M17.647 12.125h-3.323c-.11 0-.197.087-.197.194v2.327c0 .107.087.193.197.193h3.323c.95 0 1.542-.524 1.542-1.357 0-.795-.594-1.358-1.543-1.358zm-2.62-2.423h3.233c2.51 0 3.988 1.57 3.988 3.296 0 1.35-.915 2.345-1.885 2.78-.155.07-.15.283.01.346 1.128.443 1.94 1.623 1.94 3 0 1.96-1.305 3.512-3.837 3.512h-6.96c-.11 0-.197-.087-.197-.194v-9.03L.237 24.49c-.51.508-.148 1.378.57 1.378h24.254c.446 0 .808-.362.808-.808V.81c0-.72-.87-1.08-1.38-.572L15.03 9.702zm-.703 7.562c-.11 0-.197.087-.197.194v2.56c0 .106.087.193.197.193h3.44c1.05 0 1.682-.542 1.682-1.472 0-.815-.593-1.474-1.68-1.474h-3.442z" fill="#FFF" fill-rule="evenodd"/></symbol><symbol viewBox="0 0 291.764 291.764" id="icon-logo-visa"><g><g><g><path style="fill:#2394BC;" d="M119.259,100.23l-14.643,91.122h23.405l14.634-91.122C142.655,100.23,119.259,100.23,119.259,100.23z M189.857,137.348c-8.179-4.039-13.193-6.765-13.193-10.896c0.1-3.756,4.24-7.604,13.485-7.604c7.604-0.191,13.193,1.596,17.433,3.374l2.124,0.948l3.182-19.065c-4.623-1.787-11.953-3.756-21.007-3.756c-23.113,0-39.388,12.017-39.489,29.204c-0.191,12.683,11.652,19.721,20.515,23.943c9.054,4.331,12.136,7.139,12.136,10.987c-0.1,5.908-7.321,8.634-14.059,8.634c-9.336,0-14.351-1.404-21.964-4.696l-3.082-1.404l-3.273,19.813c5.498,2.444,15.609,4.595,26.104,4.705c24.563,0,40.546-11.835,40.747-30.152C209.596,151.335,203.351,143.639,189.857,137.348z M272.891,100.512h-18.108c-5.58,0-9.82,1.605-12.236,7.331l-34.766,83.509h24.563l6.765-18.08h27.481l3.51,18.153h21.664L272.891,100.512z M245.921,155.026c0.474,0.046,9.428-29.514,9.428-29.514l7.13,29.514C262.479,155.026,250.544,155.026,245.921,155.026z M85.059,100.23l-22.931,61.909L59.63,149.93c-4.24-14.087-17.533-29.395-32.368-36.999l20.998,78.33h24.764l36.799-91.021H85.059V100.23z"/></g></g><path style="fill:#EFC75E;" d="M51.916,111.982c-1.787-6.948-7.486-11.634-15.226-11.734H0.374L0,101.934c28.329,6.984,52.107,28.474,59.821,48.688L51.916,111.982z"/></g></symbol><symbol viewBox="0 0 97.75 97.75" id="icon-pinterest"><g><path d="M48.875,0C21.883,0,0,21.882,0,48.875S21.883,97.75,48.875,97.75S97.75,75.868,97.75,48.875S75.867,0,48.875,0z M54.499,65.109c-4.521,0-8.773-2.444-10.229-5.219c0,0-2.432,9.645-2.943,11.506c-1.813,6.58-7.146,13.162-7.561,13.701c-0.289,0.375-0.928,0.258-0.994-0.24c-0.113-0.838-1.475-9.139,0.127-15.909c0.801-3.4,5.383-22.814,5.383-22.814s-1.334-2.673-1.334-6.625c0-6.205,3.596-10.837,8.074-10.837c3.807,0,5.645,2.859,5.645,6.286c0,3.828-2.436,9.552-3.693,14.856c-1.051,4.441,2.225,8.064,6.605,8.064c7.933,0,13.272-10.188,13.272-22.261c0-9.174-6.176-16.044-17.418-16.044c-12.697,0-20.615,9.471-20.615,20.052c0,3.646,1.078,6.221,2.764,8.21c0.773,0.915,0.883,1.283,0.602,2.333c-0.203,0.771-0.66,2.625-0.854,3.358c-0.279,1.062-1.137,1.44-2.098,1.049c-5.846-2.387-8.572-8.793-8.572-15.994c0-11.893,10.029-26.154,29.922-26.154c15.985,0,26.506,11.566,26.506,23.984C77.089,52.839,67.956,65.109,54.499,65.109z"/></g></symbol><symbol viewBox="0 0 26 28" id="icon-print"> <path d="M0 21.5v-6.5q0-1.234 0.883-2.117t2.117-0.883h1v-8.5q0-0.625 0.438-1.062t1.062-0.438h10.5q0.625 0 1.375 0.313t1.188 0.75l2.375 2.375q0.438 0.438 0.75 1.188t0.313 1.375v4h1q1.234 0 2.117 0.883t0.883 2.117v6.5q0 0.203-0.148 0.352t-0.352 0.148h-3.5v2.5q0 0.625-0.438 1.062t-1.062 0.438h-15q-0.625 0-1.062-0.438t-0.438-1.062v-2.5h-3.5q-0.203 0-0.352-0.148t-0.148-0.352zM6 24h14v-4h-14v4zM6 14h14v-6h-2.5q-0.625 0-1.062-0.438t-0.438-1.062v-2.5h-10v10zM22 15q0 0.406 0.297 0.703t0.703 0.297 0.703-0.297 0.297-0.703-0.297-0.703-0.703-0.297-0.703 0.297-0.297 0.703z"/> </symbol><symbol viewBox="0 0 24 24" id="icon-remove"><path d="M19 13H5v-2h14v2z"/></symbol><symbol viewBox="0 0 32 32" id="icon-rss"> <path d="M-0.465347858,2.01048219 C-0.465347858,2.01048219 28.7009958,0.574406533 31,31.3201126 L25.1092027,31.3201126 C25.1092027,31.3201126 26.2597741,8.90749482 -0.465347858,6.89506416 L-0.465347858,2.01048219 L-0.465347858,2.01048219 Z M-0.465347858,12.2127144 C-0.465347858,12.2127144 16.6328276,11.6363594 19.9369779,31.3201126 L14.0472499,31.3201126 C14.0472499,31.3201126 13.3297467,19.6839434 -0.465347858,17.0940884 L-0.465347858,12.2127144 L-0.465347858,12.2127144 Z M2.73614917,25.0304648 C4.79776783,25.0304648 6.47229834,26.7007181 6.47229834,28.766614 C6.47229834,30.8282326 4.79776783,32.5016938 2.73614917,32.5016938 C0.6723919,32.5016938 -1,30.8293019 -1,28.766614 C-1,26.7017874 0.6723919,25.0304648 2.73614917,25.0304648 Z" id="rss-Shape"/> </symbol><symbol viewBox="0 0 515.558 515.558" id="icon-search"><path d="m378.344 332.78c25.37-34.645 40.545-77.2 40.545-123.333 0-115.484-93.961-209.445-209.445-209.445s-209.444 93.961-209.444 209.445 93.961 209.445 209.445 209.445c46.133 0 88.692-15.177 123.337-40.547l137.212 137.212 45.564-45.564c0-.001-137.214-137.213-137.214-137.213zm-168.899 21.667c-79.958 0-145-65.042-145-145s65.042-145 145-145 145 65.042 145 145-65.043 145-145 145z"/></symbol><symbol viewBox="0 0 26 28" id="icon-star"> <path d="M0 10.109q0-0.578 0.875-0.719l7.844-1.141 3.516-7.109q0.297-0.641 0.766-0.641t0.766 0.641l3.516 7.109 7.844 1.141q0.875 0.141 0.875 0.719 0 0.344-0.406 0.75l-5.672 5.531 1.344 7.812q0.016 0.109 0.016 0.313 0 0.328-0.164 0.555t-0.477 0.227q-0.297 0-0.625-0.187l-7.016-3.687-7.016 3.687q-0.344 0.187-0.625 0.187-0.328 0-0.492-0.227t-0.164-0.555q0-0.094 0.031-0.313l1.344-7.812-5.688-5.531q-0.391-0.422-0.391-0.75z"/> </symbol><symbol viewBox="0 0 32 32" id="icon-stumbleupon"> <path d="M31.9250667,16.0373333 C31.9250667,24.8533333 24.7784,32 15.9624,32 C7.14666667,32 0,24.8533333 0,16.0373333 C0,7.2216 7.14666667,0.0749333333 15.9624,0.0749333333 C24.7784,0.0749333333 31.9250667,7.2216 31.9250667,16.0373333 Z M21.9205547,16.3600826 L21.9205547,18.9857015 C21.9205547,19.5214765 21.494073,19.9558236 20.968,19.9558236 C20.441927,19.9558236 20.0154453,19.5214765 20.0154453,18.9857015 L20.0154453,16.4101275 L18.1823358,16.9675798 L16.9525547,16.3839008 L16.9525547,18.9383327 C16.9717372,21.1844666 18.7659562,23 20.976146,23 C23.1984234,23 25,21.1651979 25,18.9019364 L25,16.3600826 L21.9205547,16.3600826 Z M16.9525547,14.2429415 L18.1823358,14.8266205 L20.0154453,14.2691683 L20.0154453,12.9736203 C19.9505401,10.7684323 18.1810219,9 16,9 C13.8268613,9 12.0618102,10.7555866 11.9845547,12.9492669 L11.9845547,18.8684839 C11.9845547,19.404259 11.558073,19.8386061 11.032,19.8386061 C10.505927,19.8386061 10.0794453,19.404259 10.0794453,18.8684839 L10.0794453,16.3600826 L7,16.3600826 L7,18.9019364 C7,21.1651979 8.80131387,23 11.0235912,23 C13.2264234,23 15.0119708,21.1965095 15.0429781,18.9608128 L15.0474453,13.114656 C15.0474453,12.578881 15.473927,12.1445339 16,12.1445339 C16.526073,12.1445339 16.9525547,12.578881 16.9525547,13.114656 L16.9525547,14.2429415 Z" id="stumbleupon-Fill-1" mask="url(#mask-2)"/> </symbol><symbol viewBox="0 0 32 32" id="icon-tumblr"> <path d="M23.852762,25.5589268 C23.2579209,25.8427189 22.1195458,26.089634 21.2697728,26.1120809 C18.7092304,26.1810247 18.2121934,24.3131275 18.1897466,22.9566974 L18.1897466,12.9951133 L24.6159544,12.9951133 L24.6159544,8.15140729 L18.2137967,8.15140729 L18.2137967,0 L13.5256152,0 C13.4486546,0 13.3139736,0.0673405008 13.2963368,0.238898443 C13.0221648,2.73370367 11.8533261,7.11243957 7,8.86168924 L7,12.9951133 L10.2387574,12.9951133 L10.2387574,23.4521311 C10.2387574,27.0307977 12.8794671,32.1166089 19.8508122,31.9979613 C22.2013164,31.9578777 24.8131658,30.9718204 25.3919735,30.1236507 L23.852762,25.5589268"/> </symbol><symbol viewBox="0 0 512 512" id="icon-twitter"><g><g><path d="M512,97.248c-19.04,8.352-39.328,13.888-60.48,16.576c21.76-12.992,38.368-33.408,46.176-58.016c-20.288,12.096-42.688,20.64-66.56,25.408C411.872,60.704,384.416,48,354.464,48c-58.112,0-104.896,47.168-104.896,104.992c0,8.32,0.704,16.32,2.432,23.936c-87.264-4.256-164.48-46.08-216.352-109.792c-9.056,15.712-14.368,33.696-14.368,53.056c0,36.352,18.72,68.576,46.624,87.232c-16.864-0.32-33.408-5.216-47.424-12.928c0,0.32,0,0.736,0,1.152c0,51.008,36.384,93.376,84.096,103.136c-8.544,2.336-17.856,3.456-27.52,3.456c-6.72,0-13.504-0.384-19.872-1.792c13.6,41.568,52.192,72.128,98.08,73.12c-35.712,27.936-81.056,44.768-130.144,44.768c-8.608,0-16.864-0.384-25.12-1.44C46.496,446.88,101.6,464,161.024,464c193.152,0,298.752-160,298.752-298.688c0-4.64-0.16-9.12-0.384-13.568C480.224,136.96,497.728,118.496,512,97.248z"/></g></g></symbol><symbol viewBox="0 0 32 32" id="icon-youtube"> <path d="M31.6634051,8.8527593 C31.6634051,8.8527593 31.3509198,6.64879843 30.3919217,5.67824658 C29.1757339,4.40441487 27.8125088,4.39809002 27.1873503,4.32353816 C22.7118278,4 15.9983092,4 15.9983092,4 L15.984407,4 C15.984407,4 9.27104501,4 4.79536595,4.32353816 C4.17017613,4.39809002 2.80745205,4.40441487 1.59082583,5.67824658 C0.631890411,6.64879843 0.319843444,8.8527593 0.319843444,8.8527593 C0.319843444,8.8527593 0,11.4409393 0,14.0290881 L0,16.4554834 C0,19.0436008 0.319843444,21.6317495 0.319843444,21.6317495 C0.319843444,21.6317495 0.631890411,23.8357417 1.59082583,24.8062935 C2.80745205,26.0801566 4.40557339,26.0398591 5.11736986,26.1733699 C7.67602348,26.4187241 15.9913894,26.4946536 15.9913894,26.4946536 C15.9913894,26.4946536 22.7118278,26.4845401 27.1873503,26.1610333 C27.8125088,26.0864501 29.1757339,26.0801566 30.3919217,24.8062935 C31.3509198,23.8357417 31.6634051,21.6317495 31.6634051,21.6317495 C31.6634051,21.6317495 31.9827789,19.0436008 31.9827789,16.4554834 L31.9827789,14.0290881 C31.9827789,11.4409393 31.6634051,8.8527593 31.6634051,8.8527593 Z M12.6895342,19.39582 L12.6880626,10.4095186 L21.3299413,14.9183249 L12.6895342,19.39582 Z" id="youtube-Imported-Layers"/> </symbol></svg>
