<svg xmlns="http://www.w3.org/2000/svg" xmlns:xlink="http://www.w3.org/1999/xlink" preserveAspectRatio="xMidYMid" width="23.91" height="21.88" viewBox="0 0 23.91 21.88"> <defs></defs> <path d="M20.966,21.112 C20.864,21.565 20.460,21.888 19.994,21.888 L3.913,21.888 C3.447,21.888 3.043,21.565 2.941,21.112 L0.017,8.172 C-0.050,7.877 0.021,7.568 0.210,7.332 C0.400,7.095 0.686,6.958 0.989,6.958 L5.240,6.958 L7.008,0.715 C7.157,0.185 7.707,-0.121 8.238,0.028 C8.768,0.177 9.075,0.728 8.925,1.257 L7.311,6.958 L16.596,6.958 L14.982,1.257 C14.832,0.728 15.139,0.177 15.669,0.028 C16.194,-0.121 16.751,0.185 16.899,0.715 L18.667,6.958 L22.918,6.958 C23.221,6.958 23.507,7.095 23.697,7.332 C23.886,7.568 23.957,7.877 23.891,8.172 L20.966,21.112 ZM1.970,8.910 L4.710,19.897 L19.197,19.897 L21.970,8.910 L1.970,8.910 Z"></path></svg>
