<svg xmlns="http://www.w3.org/2000/svg" xmlns:xlink="http://www.w3.org/1999/xlink" preserveAspectRatio="xMidYMid" width="63.876" height="63.94" viewBox="0 0 31.938 31.97"> <path d="M31.948,4.162 C31.884,5.047 31.446,5.919 30.683,6.683 C30.682,6.683 30.681,6.684 30.681,6.684 L16.693,20.679 C16.583,20.789 16.450,20.872 16.303,20.921 L10.307,22.921 C10.203,22.955 10.097,22.972 9.991,22.972 C9.730,22.972 9.475,22.870 9.285,22.679 C9.017,22.411 8.923,22.016 9.043,21.656 L11.041,15.657 C11.091,15.510 11.173,15.377 11.283,15.267 L25.271,1.271 C25.272,1.271 25.272,1.270 25.272,1.270 C26.039,0.502 26.918,0.068 27.816,0.014 C28.525,-0.030 29.614,0.153 30.729,1.270 C31.831,2.371 32.000,3.451 31.948,4.162 ZM29.316,2.683 C28.843,2.210 28.380,1.989 27.936,2.010 C27.428,2.041 26.976,2.393 26.686,2.683 C26.686,2.684 26.685,2.684 26.684,2.685 L12.863,16.514 L11.571,20.392 L15.447,19.099 L29.270,5.269 C29.562,4.976 29.919,4.522 29.955,4.017 C29.986,3.587 29.771,3.139 29.316,2.683 ZM17.985,4.976 L1.997,4.976 L1.997,29.971 L26.978,29.971 L26.978,13.974 C26.978,13.422 27.426,12.975 27.978,12.975 C28.529,12.975 28.977,13.422 28.977,13.974 L28.977,30.970 C28.977,31.523 28.529,31.971 27.978,31.971 L0.998,31.971 C0.446,31.971 -0.002,31.523 -0.002,30.970 L-0.002,3.976 C-0.002,3.424 0.446,2.976 0.998,2.976 L17.985,2.976 C18.537,2.976 18.984,3.424 18.984,3.976 C18.984,4.528 18.537,4.976 17.985,4.976 Z" class="cls-1"/></svg>
