<svg xmlns="http://www.w3.org/2000/svg" xmlns:xlink="http://www.w3.org/1999/xlink" preserveAspectRatio="xMidYMid" width="24" height="24" viewBox="0 0 24 24">
  <path d="M22.000,24.000 L15.000,24.000 C13.897,24.000 13.000,23.103 13.000,22.000 L13.000,15.000 C13.000,13.897 13.897,13.000 15.000,13.000 L22.000,13.000 C23.103,13.000 24.000,13.897 24.000,15.000 L24.000,22.000 C24.000,23.103 23.103,24.000 22.000,24.000 ZM15.000,15.000 L15.000,22.000 L21.997,22.000 L22.000,15.000 L15.000,15.000 ZM22.000,11.000 L15.000,11.000 C13.897,11.000 13.000,10.103 13.000,9.000 L13.000,2.000 C13.000,0.897 13.897,0.000 15.000,0.000 L22.000,0.000 C23.103,0.000 24.000,0.897 24.000,2.000 L24.000,9.000 C24.000,10.103 23.103,11.000 22.000,11.000 ZM15.000,2.000 L15.000,9.000 L21.997,9.000 L22.000,2.000 L15.000,2.000 ZM9.002,24.000 L2.000,24.000 C0.897,24.000 0.000,23.103 0.000,22.000 L0.000,15.000 C0.000,13.897 0.897,13.000 2.000,13.000 L9.002,13.000 C10.105,13.000 11.002,13.897 11.002,15.000 L11.002,22.000 C11.002,23.103 10.105,24.000 9.002,24.000 ZM2.000,15.000 L2.000,22.000 L8.999,22.000 L9.002,15.000 L2.000,15.000 ZM9.002,11.000 L2.000,11.000 C0.897,11.000 0.000,10.103 0.000,9.000 L0.000,2.000 C0.000,0.897 0.897,0.000 2.000,0.000 L9.002,0.000 C10.105,0.000 11.002,0.897 11.002,2.000 L11.002,9.000 C11.002,10.103 10.105,11.000 9.002,11.000 ZM2.000,2.000 L2.000,9.000 L8.999,9.000 L9.002,2.000 L2.000,2.000 Z" class="cls-1"/>
</svg>
