<svg xmlns="http://www.w3.org/2000/svg" xmlns:xlink="http://www.w3.org/1999/xlink" preserveAspectRatio="xMidYMid" width="24" height="20" viewBox="0 0 24 20">
  <path d="M23.000,2.000 L1.000,2.000 C0.448,2.000 0.000,1.552 0.000,1.000 C0.000,0.448 0.448,-0.000 1.000,-0.000 L23.000,-0.000 C23.552,-0.000 24.000,0.448 24.000,1.000 C24.000,1.552 23.552,2.000 23.000,2.000 ZM1.000,6.000 L15.001,6.000 C15.553,6.000 16.001,6.448 16.001,7.000 C16.001,7.552 15.553,8.000 15.001,8.000 L1.000,8.000 C0.448,8.000 0.000,7.552 0.000,7.000 C0.000,6.448 0.448,6.000 1.000,6.000 ZM1.000,12.000 L23.000,12.000 C23.552,12.000 24.000,12.448 24.000,13.000 C24.000,13.552 23.552,14.000 23.000,14.000 L1.000,14.000 C0.448,14.000 0.000,13.552 0.000,13.000 C0.000,12.448 0.448,12.000 1.000,12.000 ZM1.000,18.000 L15.001,18.000 C15.553,18.000 16.001,18.448 16.001,19.000 C16.001,19.552 15.553,20.000 15.001,20.000 L1.000,20.000 C0.448,20.000 0.000,19.552 0.000,19.000 C0.000,18.448 0.448,18.000 1.000,18.000 Z" class="cls-1"/>
</svg>
