<?xml version="1.0" encoding="iso-8859-1"?><svg version="1.1" id="Capa_1" xmlns="http://www.w3.org/2000/svg" xmlns:xlink="http://www.w3.org/1999/xlink" x="0px" y="0px" viewBox="0 0 512 512" style="enable-background:new 0 0 512 512;" xml:space="preserve"><path style="fill:#EA001B;" d="M224.719,219.191c0-26.482,12.198-50.109,31.281-65.581c-14.504-11.759-32.981-18.813-53.107-18.813c-46.609,0-84.393,37.783-84.393,84.394c0,46.608,37.784,84.39,84.393,84.39c20.126,0,38.603-7.049,53.107-18.807C236.917,269.296,224.719,245.67,224.719,219.191z"/><path style="fill:#0099DF;" d="M309.109,134.796c-20.126,0-38.605,7.053-53.109,18.813c19.084,15.471,31.282,39.099,31.282,65.581c0,26.479-12.198,50.106-31.282,65.582c14.504,11.758,32.983,18.807,53.109,18.807c46.609,0,84.391-37.782,84.391-84.39S355.718,134.796,309.109,134.796z"/><path style="fill:#6C6BBD;" d="M287.282,219.191c0-26.482-12.198-50.109-31.282-65.581c-19.083,15.471-31.281,39.099-31.281,65.581c0,26.479,12.198,50.106,31.281,65.582C275.084,269.296,287.282,245.67,287.282,219.191z"/></svg>
